<?xml version="1.0" encoding="UTF-8"?>
<svg version="1.1" xmlns="http://www.w3.org/2000/svg" width="500" height="500">
<path d="M0 0 C1.00023193 0.00523682 2.00046387 0.01047363 3.03100586 0.01586914 C4.1105957 0.0190918 5.19018555 0.02231445 6.30249023 0.02563477 C8.00695312 0.03820312 8.00695312 0.03820312 9.74584961 0.05102539 C11.45611328 0.05779297 11.45611328 0.05779297 13.20092773 0.06469727 C16.02845312 0.07652792 18.85587601 0.09301129 21.68334961 0.11352539 C23.85628899 4.84072778 25.26446967 9.15859452 26.24584961 14.30102539 C26.99932453 18.23016295 27.67119333 21.63327225 29.68334961 25.11352539 C32.46703419 14.97309455 32.46703419 14.97309455 34.87084961 4.73852539 C35.68334961 1.11352539 35.68334961 1.11352539 36.68334961 0.11352539 C44.60334961 0.11352539 52.52334961 0.11352539 60.68334961 0.11352539 C60.68334961 17.93352539 60.68334961 35.75352539 60.68334961 54.11352539 C55.07334961 54.11352539 49.46334961 54.11352539 43.68334961 54.11352539 C42.06554804 52.49572382 42.46062813 50.65717021 42.36694336 48.42211914 C42.32504883 47.47788086 42.2831543 46.53364258 42.23999023 45.56079102 C42.20067383 44.56756836 42.16135742 43.5743457 42.12084961 42.55102539 C42.07766602 41.55393555 42.03448242 40.5568457 41.98999023 39.52954102 C41.88354663 37.05768389 41.78153033 34.58572229 41.68334961 32.11352539 C41.5015918 33.03133789 41.31983398 33.94915039 41.13256836 34.89477539 C39.76804422 41.55645221 38.3183975 47.83960185 35.68334961 54.11352539 C30.73334961 54.11352539 25.78334961 54.11352539 20.68334961 54.11352539 C19.03334961 48.17352539 17.38334961 42.23352539 15.68334961 36.11352539 C15.39415702 41.6629489 15.39415702 41.6629489 15.11523438 47.21289062 C14.79446072 53.00241428 14.79446072 53.00241428 13.68334961 54.11352539 C10.82067394 54.18677707 7.98263061 54.20590744 5.12084961 54.17602539 C4.31454102 54.17151367 3.50823242 54.16700195 2.67749023 54.16235352 C0.67941205 54.15053057 -1.31862822 54.13259453 -3.31665039 54.11352539 C-3.34191687 46.58382887 -3.3594818 39.05414319 -3.37158203 31.52441406 C-3.37662409 28.96060782 -3.38345753 26.39680448 -3.39208984 23.83300781 C-3.40416103 20.15697518 -3.40987981 16.48098041 -3.41430664 12.80493164 C-3.41946793 11.65078262 -3.42462921 10.49663361 -3.4299469 9.30751038 C-3.43002243 8.24648605 -3.43009796 7.18546173 -3.43017578 6.09228516 C-3.43239639 5.15296646 -3.434617 4.21364777 -3.43690491 3.24586487 C-3.26763678 0.24442163 -3.00847286 0.14742754 0 0 Z M13.68334961 28.11352539 C14.68334961 30.11352539 14.68334961 30.11352539 14.68334961 30.11352539 Z " fill="#FE3232" transform="translate(133.316650390625,204.886474609375)"/>
<path d="M0 0 C0.91652344 -0.020625 1.83304688 -0.04125 2.77734375 -0.0625 C10.08943401 -0.10422377 16.10262919 1.0184048 22.0625 5.5625 C25.79940167 9.29940167 27.59958331 12.25697884 28 17.5625 C27.75 20.25 27.75 20.25 26.75 21.25 C24.10673995 21.45696667 21.5216971 21.57436753 18.875 21.625 C18.14152344 21.66238281 17.40804687 21.69976562 16.65234375 21.73828125 C14.5078125 21.7734375 14.5078125 21.7734375 10.75 21.25 C8.9296875 18.8515625 8.9296875 18.8515625 7.75 16.25 C4.58181244 14.13787496 2.61780748 13.91843536 -1.1171875 13.69140625 C-4.63500288 14.61273885 -6.06931613 16.39977512 -8.25 19.25 C-8.72888066 22.1797978 -8.91089951 24.41104413 -8.8125 27.3125 C-8.82345703 28.01955078 -8.83441406 28.72660156 -8.84570312 29.45507812 C-8.79804044 32.83912864 -8.47707127 34.92332701 -6.53125 37.72265625 C-3.83411687 39.5284423 -2.40597166 39.73179695 0.8125 39.625 C1.66972656 39.61210937 2.52695313 39.59921875 3.41015625 39.5859375 C6.01702075 39.38313605 6.01702075 39.38313605 8.75 37.25 C7.79287109 37.15912109 7.79287109 37.15912109 6.81640625 37.06640625 C5.99011719 36.98261719 5.16382813 36.89882812 4.3125 36.8125 C3.48878906 36.73128906 2.66507813 36.65007812 1.81640625 36.56640625 C-0.25 36.25 -0.25 36.25 -1.25 35.25 C-1.32226502 33.39712498 -1.3338122 31.54166122 -1.3125 29.6875 C-1.30347656 28.67558594 -1.29445312 27.66367188 -1.28515625 26.62109375 C-1.27355469 25.83863281 -1.26195312 25.05617187 -1.25 24.25 C4.93381608 23.34082751 10.94172183 23.09762625 17.1875 23.125 C18.09693359 23.12113281 19.00636719 23.11726563 19.94335938 23.11328125 C20.80638672 23.11457031 21.66941406 23.11585938 22.55859375 23.1171875 C23.73119751 23.11887939 23.73119751 23.11887939 24.92749023 23.12060547 C26.75 23.25 26.75 23.25 27.75 24.25 C27.85003289 26.38353174 27.88081048 28.52037542 27.8828125 30.65625 C27.88410156 31.95691406 27.88539063 33.25757813 27.88671875 34.59765625 C27.88462402 35.27844238 27.8825293 35.95922852 27.88037109 36.66064453 C27.8750224 38.74128515 27.8803168 40.82170989 27.88671875 42.90234375 C27.88542969 44.20300781 27.88414062 45.50367188 27.8828125 46.84375 C27.88168457 48.04708984 27.88055664 49.25042969 27.87939453 50.49023438 C27.75 53.25 27.75 53.25 26.75 54.25 C25.23071962 54.32179964 23.70832518 54.33392007 22.1875 54.3125 C21.36121094 54.30347656 20.53492188 54.29445313 19.68359375 54.28515625 C19.04550781 54.27355469 18.40742188 54.26195312 17.75 54.25 C17.255 52.27 17.255 52.27 16.75 50.25 C16.14671875 50.52714844 15.5434375 50.80429688 14.921875 51.08984375 C13.72304687 51.63318359 13.72304687 51.63318359 12.5 52.1875 C11.71109375 52.54714844 10.9221875 52.90679687 10.109375 53.27734375 C2.16796646 56.55120257 -7.22373644 56.37149342 -15.21484375 53.296875 C-20.63973479 50.50633604 -24.50169183 46.69242434 -27.25 41.25 C-29.75925934 30.76007194 -30.48023487 19.54268946 -25.125 9.8125 C-18.83362618 0.85149277 -10.09481455 0.0558496 0 0 Z " fill="#FE3232" transform="translate(225.25,204.75)"/>
<path d="M0 0 C4.74375 -0.061875 9.4875 -0.12375 14.375 -0.1875 C16.58775635 -0.22846802 16.58775635 -0.22846802 18.84521484 -0.27026367 C29.03153243 -0.33422907 37.93809522 0.1720364 45.59765625 7.453125 C50.97601607 13.38580046 51.20055607 19.20431599 51.25 26.8125 C51.270625 27.59431641 51.29125 28.37613281 51.3125 29.18164062 C51.35838548 36.0472549 49.7381382 40.46728433 45.8125 46.1875 C40.77502044 51.22497956 34.8223897 53.86849577 27.70019531 54.11352539 C26.42241211 54.10828857 25.14462891 54.10305176 23.828125 54.09765625 C22.5793457 54.09515869 21.33056641 54.09266113 20.04394531 54.09008789 C18.46194336 54.08098389 16.87994141 54.07187988 15.25 54.0625 C7.70125 54.0315625 7.70125 54.0315625 0 54 C0 36.18 0 18.36 0 0 Z M18 15 C17.91262355 16.85369611 17.89301847 18.71067541 17.90234375 20.56640625 C17.90556641 21.69111328 17.90878906 22.81582031 17.91210938 23.97460938 C17.92048828 25.15861328 17.92886719 26.34261719 17.9375 27.5625 C17.94201172 28.75037109 17.94652344 29.93824219 17.95117188 31.16210938 C17.96300325 34.10812226 17.97948713 37.05403681 18 40 C25.19556745 40.15814989 25.19556745 40.15814989 31.16015625 36.91015625 C32.19735628 33.31613754 32.43378259 30.18093057 32.4375 26.4375 C32.45683594 25.13683594 32.47617187 23.83617187 32.49609375 22.49609375 C32.27378338 18.98745249 32.27378338 18.98745249 30.265625 16.5859375 C27.77428043 14.8419963 26.31984498 14.40124518 23.3125 14.1875 C22.13107422 14.08501953 22.13107422 14.08501953 20.92578125 13.98046875 C18.99127703 13.7754232 18.99127703 13.7754232 18 15 Z " fill="#FE3131" transform="translate(354,205)"/>
<path d="M0 0 C1.06812172 -0.00855011 1.06812172 -0.00855011 2.15782166 -0.01727295 C3.67184965 -0.02674228 5.18589844 -0.03326457 6.69995117 -0.03710938 C8.99370723 -0.04673386 11.28653577 -0.07770239 13.58007812 -0.109375 C29.97931316 -0.23216443 29.97931316 -0.23216443 36.05859375 5.0078125 C40.49030991 11.53228352 41.1264184 17.44260468 39.96484375 25.203125 C38.27472711 30.6021087 34.84820883 33.501689 29.96484375 36.203125 C26.19993208 37.45809556 22.692779 37.30974148 18.77734375 37.265625 C16.19921875 37.245 13.62109375 37.224375 10.96484375 37.203125 C10.96484375 42.813125 10.96484375 48.423125 10.96484375 54.203125 C7.98561782 54.22996487 5.0066308 54.24988537 2.02734375 54.265625 C1.17720703 54.27400391 0.32707031 54.28238281 -0.54882812 54.29101562 C-1.35771484 54.29423828 -2.16660156 54.29746094 -3 54.30078125 C-3.74886475 54.30601807 -4.49772949 54.31125488 -5.26928711 54.31665039 C-7.03515625 54.203125 -7.03515625 54.203125 -8.03515625 53.203125 C-8.13377223 51.58185077 -8.16314392 49.95630132 -8.16455078 48.33203125 C-8.16770294 47.29425537 -8.1708551 46.25647949 -8.17410278 45.18725586 C-8.17207855 44.05811768 -8.17005432 42.92897949 -8.16796875 41.765625 C-8.16940384 40.04001343 -8.16940384 40.04001343 -8.17086792 38.27954102 C-8.17154994 35.84163356 -8.16969415 33.4037243 -8.16552734 30.96582031 C-8.16017942 27.21935982 -8.16547164 23.47301923 -8.171875 19.7265625 C-8.17121422 17.36458307 -8.16993307 15.00260371 -8.16796875 12.640625 C-8.16999298 11.51148682 -8.17201721 10.38234863 -8.17410278 9.21899414 C-8.17095062 8.18121826 -8.16779846 7.14344238 -8.16455078 6.07421875 C-8.16375519 5.15568115 -8.16295959 4.23714355 -8.16213989 3.29077148 C-7.88152353 -1.32263968 -3.64594906 0.02240508 0 0 Z M10.96484375 14.203125 C10.96484375 17.503125 10.96484375 20.803125 10.96484375 24.203125 C14.21779489 24.42491712 16.39282168 24.48913603 19.33984375 23.015625 C21.18578597 21.28045896 21.18578597 21.28045896 21.40234375 18.640625 C21.25796875 17.83625 21.11359375 17.031875 20.96484375 16.203125 C17.32066635 13.7736734 15.25243103 14.04132925 10.96484375 14.203125 Z " fill="#FE3030" transform="translate(311.03515625,204.796875)"/>
<path d="M0 0 C0.89009766 -0.020625 1.78019531 -0.04125 2.69726562 -0.0625 C9.18311079 -0.10096313 13.46266722 0.89338786 18.5 5.25 C21.40967056 8.69849844 21.34812323 11.83883835 21.375 16.1875 C21.38917969 17.22777344 21.40335937 18.26804688 21.41796875 19.33984375 C21.19142282 22.20046613 20.66483619 23.82670151 19.1875 26.25 C18.5275 26.25 17.8675 26.25 17.1875 26.25 C16.97351563 26.82234375 16.75953125 27.3946875 16.5390625 27.984375 C14.72537984 31.02465229 12.45462781 32.48223641 9.5625 34.5 C8.55960937 35.20640625 7.55671875 35.9128125 6.5234375 36.640625 C5.75257813 37.17171875 4.98171875 37.7028125 4.1875 38.25 C5.40308594 38.31058594 6.61867188 38.37117188 7.87109375 38.43359375 C9.45574228 38.51798332 11.04037702 38.6026321 12.625 38.6875 C13.42744141 38.72681641 14.22988281 38.76613281 15.05664062 38.80664062 C21.07421875 39.13671875 21.07421875 39.13671875 22.1875 40.25 C22.1875 44.87 22.1875 49.49 22.1875 54.25 C7.3375 54.25 -7.5125 54.25 -22.8125 54.25 C-22.8125 46.45223341 -22.78011385 43.33489069 -17.5390625 37.88671875 C0.69861111 20.25 0.69861111 20.25 4.1875 20.25 C4.23004356 18.25045254 4.22830783 16.24958364 4.1875 14.25 C3.20482141 13.04438816 3.20482141 13.04438816 1.33984375 13.15234375 C-0.7109375 13.18489583 -2.76171875 13.21744792 -4.8125 13.25 C-5.8025 15.56 -6.7925 17.87 -7.8125 20.25 C-12.7625 20.25 -17.7125 20.25 -22.8125 20.25 C-22.4825 16.95 -22.1525 13.65 -21.8125 10.25 C-21.1525 10.25 -20.4925 10.25 -19.8125 10.25 C-19.77125 9.693125 -19.73 9.13625 -19.6875 8.5625 C-18.34625322 5.01777636 -15.80325278 3.46315705 -12.8125 1.25 C-8.54793146 -0.17152285 -4.46754315 0.02554707 0 0 Z " fill="#FE3232" transform="translate(277.8125,204.75)"/>
<path d="M0 0 C0.76166977 0.00222061 1.52333954 0.00444122 2.30809021 0.00672913 C3.16890701 0.00680466 4.02972382 0.00688019 4.91662598 0.00695801 C5.8520372 0.01211929 6.78744843 0.01728058 7.75120544 0.02259827 C8.70422043 0.02401321 9.65723541 0.02542816 10.63912964 0.02688599 C13.69605085 0.032503 16.75289996 0.04505836 19.80979919 0.05775452 C21.87685543 0.06276733 23.94391281 0.06733061 26.01097107 0.07142639 C31.08977507 0.08247795 36.16852489 0.09975397 41.24729919 0.12025452 C41.27415331 2.43269244 41.2936276 4.74521722 41.30979919 7.05775452 C41.32140076 8.34552795 41.33300232 9.63330139 41.34495544 10.96009827 C41.24729919 14.12025452 41.24729919 14.12025452 40.24729919 15.12025452 C38.46658673 15.20751675 36.68246779 15.22724493 34.89964294 15.21791077 C33.8200531 15.21468811 32.74046326 15.21146545 31.62815857 15.20814514 C30.49184998 15.19976624 29.35554138 15.19138733 28.18479919 15.18275452 C27.04462341 15.1782428 25.90444763 15.17373108 24.72972107 15.16908264 C21.90219568 15.15725199 19.07477279 15.14076861 16.24729919 15.12025452 C16.24729919 17.10025452 16.24729919 19.08025452 16.24729919 21.12025452 C16.87821472 21.1150177 17.50913025 21.10978088 18.15916443 21.10438538 C21.00103266 21.08367625 23.84288507 21.07061386 26.68479919 21.05775452 C28.17463318 21.04518616 28.17463318 21.04518616 29.69456482 21.03236389 C31.11092224 21.02752991 31.11092224 21.02752991 32.55589294 21.02259827 C33.86771545 21.01474304 33.86771545 21.01474304 35.20603943 21.00672913 C37.24729919 21.12025452 37.24729919 21.12025452 38.24729919 22.12025452 C38.34603735 24.11825023 38.37701719 26.1198261 38.37229919 28.12025452 C38.37616638 29.75994202 38.37616638 29.75994202 38.38011169 31.43275452 C38.24729919 34.12025452 38.24729919 34.12025452 37.24729919 35.12025452 C35.68557175 35.20711055 34.12000575 35.22727671 32.55589294 35.21791077 C31.61165466 35.21468811 30.66741638 35.21146545 29.69456482 35.20814514 C28.70134216 35.19976624 27.70811951 35.19138733 26.68479919 35.18275452 C25.68770935 35.1782428 24.69061951 35.17373108 23.66331482 35.16908264 C21.19128433 35.15725474 18.71928447 35.13931867 16.24729919 35.12025452 C16.24729919 41.39025452 16.24729919 47.66025452 16.24729919 54.12025452 C10.30729919 54.12025452 4.36729919 54.12025452 -1.75270081 54.12025452 C-2.73381598 51.176909 -2.87931817 49.27250096 -2.88209534 46.20570374 C-2.88682358 44.70932877 -2.88682358 44.70932877 -2.89164734 43.182724 C-2.88962311 42.10765594 -2.88759888 41.03258789 -2.88551331 39.92494202 C-2.88647003 38.82175629 -2.88742676 37.71857056 -2.88841248 36.58195496 C-2.88909315 34.25015709 -2.88724671 31.91835733 -2.8830719 29.58656311 C-2.87771194 26.00269862 -2.88302595 22.41895889 -2.88941956 18.83509827 C-2.88875895 16.57337924 -2.88747816 14.31166029 -2.88551331 12.04994202 C-2.88753754 10.9708255 -2.88956177 9.89170898 -2.89164734 8.77989197 C-2.88849518 7.78861298 -2.88534302 6.79733398 -2.88209534 5.77601624 C-2.88129974 4.89904083 -2.88050415 4.02206543 -2.87968445 3.11851501 C-2.71821856 0.57762951 -2.55065191 0.17500272 0 0 Z " fill="#FE2F2F" transform="translate(410.75270080566406,204.87974548339844)"/>
<path d="M0 0 C2.16454172 -0.00436595 4.32703094 -0.04067115 6.49121094 -0.07861328 C7.8740165 -0.08448341 9.2568317 -0.08845149 10.63964844 -0.09033203 C11.89310059 -0.0985498 13.14655273 -0.10676758 14.43798828 -0.11523438 C18.36916938 0.45222902 20.04888678 1.5567915 22.80371094 4.37060547 C22.80371094 5.03060547 22.80371094 5.69060547 22.80371094 6.37060547 C23.38121094 6.59748047 23.95871094 6.82435547 24.55371094 7.05810547 C27.60303188 8.83687602 28.92173765 10.34507455 30.80371094 13.37060547 C31.35983481 16.6503189 31.29345339 19.87588691 31.22949219 23.19482422 C31.22620407 24.13743607 31.22291595 25.08004791 31.2195282 26.05122375 C31.20912886 28.03739356 31.18921549 30.02353348 31.16040039 32.00952148 C31.11621557 35.05778601 31.09894618 38.10526304 31.08691406 41.15380859 C31.07349419 43.08415857 31.05857238 45.01449881 31.04199219 46.94482422 C31.03460526 47.85938889 31.02721832 48.77395355 31.01960754 49.7162323 C31.00677231 50.56083511 30.99393707 51.40543793 30.98071289 52.27563477 C30.97086868 53.0200029 30.96102448 53.76437103 30.95088196 54.53129578 C30.80371094 56.37060547 30.80371094 56.37060547 29.80371094 58.37060547 C29.14371094 58.37060547 28.48371094 58.37060547 27.80371094 58.37060547 C27.47371094 59.36060547 27.14371094 60.35060547 26.80371094 61.37060547 C20.81285579 63.36755718 13.90433066 62.67799294 7.61669922 62.72070312 C5.82815549 62.73727274 4.03967825 62.76457626 2.25146484 62.80273438 C-0.33303004 62.85756133 -2.91597816 62.87938241 -5.50097656 62.89404297 C-6.29696259 62.91671234 -7.09294861 62.93938171 -7.91305542 62.96273804 C-12.19409191 62.94648566 -13.72027896 62.75507817 -17.17724609 59.96289062 C-19.77857169 56.62300246 -20.32311825 55.06491727 -20.37329102 50.92431641 C-20.38612625 50.00285828 -20.39896149 49.08140015 -20.41218567 48.13201904 C-20.4195726 47.13309631 -20.42695953 46.13417358 -20.43457031 45.10498047 C-20.44264206 44.07882629 -20.45071381 43.05267212 -20.45903015 41.99542236 C-20.47287795 39.81988213 -20.48359698 37.64432011 -20.49145508 35.46875 C-20.508648 32.14785305 -20.55252628 28.82795662 -20.59667969 25.50732422 C-20.60680825 23.39405029 -20.61532384 21.2807679 -20.62207031 19.16748047 C-20.6395784 18.17665466 -20.65708649 17.18582886 -20.67512512 16.16497803 C-20.65704996 10.39399372 -20.17615657 6.88331028 -16.19628906 2.37060547 C-11.3432181 -0.86477517 -5.67939717 -0.00128551 0 0 Z M-14.03149414 6.77783203 C-15.86278802 10.85419779 -15.62360123 14.82715816 -15.59472656 19.24560547 C-15.59759674 20.20708496 -15.60046692 21.16856445 -15.60342407 22.15917969 C-15.60546357 24.1899474 -15.59994168 26.22073482 -15.58740234 28.25146484 C-15.57134729 31.35933369 -15.58725511 34.46590205 -15.60644531 37.57373047 C-15.60446286 39.54769167 -15.60061915 41.52165207 -15.59472656 43.49560547 C-15.60079926 44.4248584 -15.60687195 45.35411133 -15.61312866 46.31152344 C-15.57469021 49.83852746 -15.47625041 52.66815339 -14.16381836 55.96118164 C-11.09023116 58.16292118 -7.9506788 57.881907 -4.31738281 57.79638672 C-3.54950943 57.7930986 -2.78163605 57.78981049 -1.99049377 57.78642273 C-0.36898309 57.7760071 1.25249041 57.75606569 2.8737793 57.72729492 C5.36039621 57.68320856 7.84604842 57.66585853 10.33300781 57.65380859 C11.90789158 57.64038484 13.48276343 57.62546195 15.05761719 57.60888672 C15.80346573 57.60149979 16.54931427 57.59411285 17.31776428 57.58650208 C21.18874375 57.58054077 21.18874375 57.58054077 24.80371094 56.37060547 C26.0775622 52.54905167 25.92724282 48.96376077 25.90136719 44.98388672 C25.89995224 44.1668779 25.89853729 43.34986908 25.89707947 42.50810242 C25.89148388 39.89973279 25.87893222 37.29144913 25.86621094 34.68310547 C25.86119537 32.9142265 25.85663256 31.14534619 25.85253906 29.37646484 C25.8415159 25.04114528 25.82425431 20.70588995 25.80371094 16.37060547 C21.84371094 16.04060547 17.88371094 15.71060547 13.80371094 15.37060547 C13.30871094 10.42060547 13.30871094 10.42060547 12.80371094 5.37060547 C8.69978082 5.25468783 4.59626987 5.18344945 0.49121094 5.12060547 C-0.67603516 5.08708984 -1.84328125 5.05357422 -3.04589844 5.01904297 C-4.72329102 4.99970703 -4.72329102 4.99970703 -6.43457031 4.97998047 C-7.46622314 4.9590332 -8.49787598 4.93808594 -9.56079102 4.91650391 C-12.2224245 5.16483281 -12.2224245 5.16483281 -14.03149414 6.77783203 Z M18.80371094 9.37060547 C18.80371094 10.03060547 18.80371094 10.69060547 18.80371094 11.37060547 C19.46371094 11.04060547 20.12371094 10.71060547 20.80371094 10.37060547 C20.14371094 10.04060547 19.48371094 9.71060547 18.80371094 9.37060547 Z " fill="#282527" transform="translate(60.1962890625,202.62939453125)"/>
<path d="M0 0 C2.97922593 -0.02683987 5.95821295 -0.04676037 8.9375 -0.0625 C9.78763672 -0.07087891 10.63777344 -0.07925781 11.51367188 -0.08789062 C12.32255859 -0.09111328 13.13144531 -0.09433594 13.96484375 -0.09765625 C14.7137085 -0.10289307 15.46257324 -0.10812988 16.23413086 -0.11352539 C18 0 18 0 19 1 C19.09853953 2.58533545 19.12798689 4.17503341 19.12939453 5.76342773 C19.13254669 6.77795517 19.13569885 7.7924826 19.13894653 8.8377533 C19.1369223 9.94188065 19.13489807 11.046008 19.1328125 12.18359375 C19.13424759 13.87235374 19.13424759 13.87235374 19.13571167 15.5952301 C19.13639373 17.98186295 19.13453764 20.36849764 19.13037109 22.75512695 C19.12502819 26.41817377 19.13031268 30.08109768 19.13671875 33.74414062 C19.13605788 36.05729194 19.13477652 38.37044318 19.1328125 40.68359375 C19.13483673 41.78569687 19.13686096 42.88779999 19.13894653 44.02330017 C19.13579437 45.04097977 19.13264221 46.05865936 19.12939453 47.10717773 C19.12859894 48.00572983 19.12780334 48.90428192 19.12698364 49.83006287 C19 52 19 52 18 54 C15.18743719 54.02684312 12.37512759 54.04676188 9.5625 54.0625 C8.76005859 54.07087891 7.95761719 54.07925781 7.13085938 54.08789062 C5.08704779 54.0965143 3.04316098 54.0522815 1 54 C0 53 0 53 -0.12025452 50.86766052 C-0.11803391 49.92834183 -0.11581329 48.98902313 -0.11352539 48.02124023 C-0.11344986 46.96021591 -0.11337433 45.89919159 -0.11329651 44.80601501 C-0.10813522 43.651866 -0.10297394 42.49771698 -0.09765625 41.30859375 C-0.0962413 40.13361832 -0.09482635 38.95864288 -0.09336853 37.74806213 C-0.08774992 33.97784936 -0.07519426 30.20769496 -0.0625 26.4375 C-0.0574874 23.88867273 -0.05292408 21.33984453 -0.04882812 18.79101562 C-0.03777444 12.52732367 -0.02101821 6.26366601 0 0 Z " fill="#FE3131" transform="translate(107,205)"/>
<path d="M0 0 C0.74636719 -0.01933594 1.49273437 -0.03867188 2.26171875 -0.05859375 C6.53550799 -0.02077261 8.06468564 0.26185617 11.46875 3.1015625 C12.1390625 3.93429688 12.809375 4.76703125 13.5 5.625 C13.83 5.955 14.16 6.285 14.5 6.625 C14.96031025 10.42120573 14.85532669 12.11621986 12.63671875 15.29296875 C11.82847656 16.12441406 11.02023438 16.95585937 10.1875 17.8125 C9.38699219 18.65167969 8.58648437 19.49085938 7.76171875 20.35546875 C6.00953876 22.11370118 4.25520882 23.86979118 2.5 25.625 C9.43 26.12 9.43 26.12 16.5 26.625 C16.5 28.275 16.5 29.925 16.5 31.625 C15.5 32.625 15.5 32.625 12.54077148 32.73852539 C11.24727783 32.73328857 9.95378418 32.72805176 8.62109375 32.72265625 C7.59110008 32.72053383 7.59110008 32.72053383 6.54029846 32.71836853 C4.33932199 32.71275479 2.13844591 32.70020007 -0.0625 32.6875 C-1.55143083 32.68248676 -3.04036324 32.67792355 -4.52929688 32.67382812 C-8.18623075 32.66278093 -11.84310558 32.64550713 -15.5 32.625 C-15.88218767 30.96885343 -16.21395102 29.30042976 -16.5 27.625 C-14.62175109 25.74675109 -11.46064724 26.23397603 -8.9375 26.0625 C-7.14119141 25.93681641 -7.14119141 25.93681641 -5.30859375 25.80859375 C-4.38175781 25.74800781 -3.45492187 25.68742187 -2.5 25.625 C-3.20125 24.944375 -3.9025 24.26375 -4.625 23.5625 C-5.58413937 22.58412287 -6.54239296 21.60487698 -7.5 20.625 C-8.05042969 20.09390625 -8.60085937 19.5628125 -9.16796875 19.015625 C-12.0625556 16.0179056 -13.91492447 13.75698844 -14.1875 9.5 C-12.70414331 1.1392623 -7.48771922 -0.19398236 0 0 Z M-7.5 6.625 C-8.3573478 8.90469842 -8.3573478 8.90469842 -8.5 11.625 C-6.88550814 13.96545058 -6.88550814 13.96545058 -4.5625 15.9375 C-3.81097656 16.63488281 -3.05945313 17.33226562 -2.28515625 18.05078125 C-1.69605469 18.57027344 -1.10695313 19.08976562 -0.5 19.625 C4.24908547 16.81872222 6.69372222 14.37408547 9.5 9.625 C8.84 8.635 8.18 7.645 7.5 6.625 C6.86191406 6.70878906 6.22382812 6.79257813 5.56640625 6.87890625 C4.74011719 6.98074219 3.91382813 7.08257812 3.0625 7.1875 C2.23878906 7.29191406 1.41507813 7.39632812 0.56640625 7.50390625 C-0.11550781 7.54386719 -0.79742187 7.58382812 -1.5 7.625 C-1.83 7.295 -2.16 6.965 -2.5 6.625 C-4.16617115 6.58436168 -5.83388095 6.582279 -7.5 6.625 Z " fill="#252222" transform="translate(65.5,218.375)"/>
<path d="M0 0 C1.02574883 0.00424484 1.02574883 0.00424484 2.07221985 0.00857544 C4.2527529 0.01975566 6.4328727 0.04485559 8.61328125 0.0703125 C10.09309302 0.08034512 11.57291124 0.08947048 13.05273438 0.09765625 C16.67721725 0.11968769 20.30145891 0.15420248 23.92578125 0.1953125 C24.42078125 1.1853125 24.42078125 1.1853125 24.92578125 2.1953125 C21.57579469 3.19649254 18.4764658 3.34750276 14.98828125 3.40625 C13.27511719 3.44878906 13.27511719 3.44878906 11.52734375 3.4921875 C9.12645877 3.54426743 6.72539172 3.58853967 4.32421875 3.625 C3.18210937 3.6559375 2.04 3.686875 0.86328125 3.71875 C-0.17957031 3.73856934 -1.22242188 3.75838867 -2.296875 3.77880859 C-5.50180326 4.25943514 -6.74074038 4.98140302 -9.07421875 7.1953125 C-9.62641599 9.32186608 -9.62641599 9.32186608 -9.46826172 11.7109375 C-9.45439423 12.62198242 -9.44052673 13.53302734 -9.42623901 14.47167969 C-9.3899942 15.45297852 -9.35374939 16.43427734 -9.31640625 17.4453125 C-9.29329376 18.4549707 -9.27018127 19.46462891 -9.24636841 20.50488281 C-9.19337656 22.64023378 -9.13052433 24.77535933 -9.05859375 26.91015625 C-8.9496586 30.18210138 -8.87266006 33.45361494 -8.80078125 36.7265625 C-8.74537261 38.79953035 -8.6881421 40.87245048 -8.62890625 42.9453125 C-8.60480682 43.92661133 -8.5807074 44.90791016 -8.55587769 45.91894531 C-8.506707 47.2855127 -8.506707 47.2855127 -8.45654297 48.6796875 C-8.43115448 49.48116211 -8.40576599 50.28263672 -8.37960815 51.10839844 C-8.1821989 53.49741998 -8.1821989 53.49741998 -6.07421875 56.1953125 C-3.2369455 56.46198789 -0.6203883 56.54322484 2.21484375 56.48828125 C3.4424794 56.48191399 3.4424794 56.48191399 4.69491577 56.47541809 C7.31386961 56.45859929 9.93205927 56.42094224 12.55078125 56.3828125 C14.32420765 56.36776976 16.09764609 56.35408064 17.87109375 56.34179688 C22.22295155 56.30868542 26.57423676 56.25688202 30.92578125 56.1953125 C31.25578125 55.2053125 31.58578125 54.2153125 31.92578125 53.1953125 C31.92578125 53.8553125 31.92578125 54.5153125 31.92578125 55.1953125 C32.58578125 55.1953125 33.24578125 55.1953125 33.92578125 55.1953125 C32.05078125 59.0703125 32.05078125 59.0703125 30.92578125 60.1953125 C28.29652855 60.34309608 25.69019591 60.4303393 23.05859375 60.4765625 C21.87280228 60.50417664 21.87280228 60.50417664 20.66305542 60.53234863 C18.1257086 60.59127886 15.58829281 60.64399635 13.05078125 60.6953125 C9.7199091 60.76295405 6.38925232 60.83668703 3.05859375 60.9140625 C1.90534103 60.93442566 1.90534103 60.93442566 0.72879028 60.9552002 C-2.44894362 61.02926181 -5.03881463 61.18351113 -8.07421875 62.1953125 C-13.9819813 56.43903104 -13.9819813 56.43903104 -14.22138977 53.21087646 C-14.23615608 51.99225922 -14.23615608 51.99225922 -14.2512207 50.74902344 C-14.26405594 49.82756531 -14.27689117 48.90610718 -14.29011536 47.95672607 C-14.29750229 46.95780334 -14.30488922 45.95888062 -14.3125 44.9296875 C-14.32057175 43.90353333 -14.32864349 42.87737915 -14.33695984 41.82012939 C-14.35080764 39.64458916 -14.36152667 37.46902714 -14.36938477 35.29345703 C-14.38657768 31.97256008 -14.43045597 28.65266365 -14.47460938 25.33203125 C-14.48473794 23.21875732 -14.49325353 21.10547493 -14.5 18.9921875 C-14.51750809 18.00136169 -14.53501617 17.01053589 -14.55305481 15.98968506 C-14.53497965 10.21870076 -14.05408625 6.70801731 -10.07421875 2.1953125 C-6.34881213 -0.28829191 -4.44358902 -0.0362742 0 0 Z " fill="#363434" transform="translate(54.07421875,202.8046875)"/>
<path d="M0 0 C0.042721 1.66611905 0.04063832 3.33382885 0 5 C-1 6 -1 6 -3.95922852 6.11352539 C-5.25272217 6.10828857 -6.54621582 6.10305176 -7.87890625 6.09765625 C-8.90889992 6.09553383 -8.90889992 6.09553383 -9.95970154 6.09336853 C-12.16067801 6.08775479 -14.36155409 6.07520007 -16.5625 6.0625 C-18.05143083 6.05748676 -19.54036324 6.05292355 -21.02929688 6.04882812 C-24.68623075 6.03778093 -28.34310558 6.02050713 -32 6 C-32.38218767 4.34385343 -32.71395102 2.67542976 -33 1 C-27.59241266 -4.40758734 -7.16912728 -0.5703712 0 0 Z " fill="#252323" transform="translate(82,245)"/>
<path d="M0 0 C1.1446875 -0.02900391 1.1446875 -0.02900391 2.3125 -0.05859375 C4.5390625 -0.0390625 4.5390625 -0.0390625 8.375 0.625 C10.421875 2.921875 10.421875 2.921875 11.375 5.625 C10.6877637 12.72644175 7.68682932 16.0801193 2.375 20.625 C2.045 19.635 1.715 18.645 1.375 17.625 C2.15875 16.861875 2.9425 16.09875 3.75 15.3125 C6.44757717 12.71608195 6.44757717 12.71608195 8.375 9.625 C8.045 8.965 7.715 8.305 7.375 7.625 C6.45267578 7.76808594 6.45267578 7.76808594 5.51171875 7.9140625 C4.70347656 8.02492187 3.89523438 8.13578125 3.0625 8.25 C2.26199219 8.36601562 1.46148437 8.48203125 0.63671875 8.6015625 C-1.625 8.625 -1.625 8.625 -4.625 6.625 C-4.625 5.965 -4.625 5.305 -4.625 4.625 C-6.60520421 5.06533992 -6.60520421 5.06533992 -8.625 6.625 C-9.88652609 9.2113924 -10.78143045 11.87700829 -11.625 14.625 C-12.285 14.295 -12.945 13.965 -13.625 13.625 C-14.23204023 6.46192529 -14.23204023 6.46192529 -11.64453125 2.89453125 C-7.6412882 -0.11437459 -4.87372922 -0.12475416 0 0 Z " fill="#2C2A2A" transform="translate(65.625,218.375)"/>
<path d="M0 0 C0.6852475 0.02361099 1.370495 0.04722198 2.07650757 0.07154846 C4.26736166 0.14818482 6.45786222 0.23220871 8.6484375 0.31640625 C10.13279514 0.36962701 11.61717009 0.42236741 13.1015625 0.47460938 C16.74240487 0.60379955 20.38296594 0.73961699 24.0234375 0.87890625 C24.0234375 2.19890625 24.0234375 3.51890625 24.0234375 4.87890625 C13.4634375 4.87890625 2.9034375 4.87890625 -7.9765625 4.87890625 C-8.3065625 3.55890625 -8.6365625 2.23890625 -8.9765625 0.87890625 C-5.98077446 -0.61898777 -3.33248831 -0.1219203 0 0 Z " fill="#141011" transform="translate(57.9765625,252.12109375)"/>
<path d="M0 0 C1.15242188 0.00837891 2.30484375 0.01675781 3.4921875 0.02539062 C5.28269531 0.06889648 5.28269531 0.06889648 7.109375 0.11328125 C8.31851563 0.12294922 9.52765625 0.13261719 10.7734375 0.14257812 C19.69140403 0.25781028 19.69140403 0.25781028 20.859375 1.42578125 C21.00194689 4.76196356 20.90165657 8.08553731 20.859375 11.42578125 C24.489375 11.42578125 28.119375 11.42578125 31.859375 11.42578125 C31.529375 12.08578125 31.199375 12.74578125 30.859375 13.42578125 C28.88028102 13.45264678 26.90108529 13.472115 24.921875 13.48828125 C23.81972656 13.49988281 22.71757813 13.51148438 21.58203125 13.5234375 C18.859375 13.42578125 18.859375 13.42578125 17.859375 12.42578125 C17.78731989 10.73969159 17.77551432 9.05077466 17.796875 7.36328125 C17.80589844 6.44417969 17.81492187 5.52507812 17.82421875 4.578125 C17.83582031 3.86785156 17.84742187 3.15757812 17.859375 2.42578125 C13.7335553 2.50633933 9.60924869 2.6192081 5.484375 2.73828125 C4.30875 2.76083984 3.133125 2.78339844 1.921875 2.80664062 C0.80039062 2.84208984 -0.32109375 2.87753906 -1.4765625 2.9140625 C-2.51345215 2.94024658 -3.5503418 2.96643066 -4.61865234 2.9934082 C-5.45090332 3.13609131 -6.2831543 3.27877441 -7.140625 3.42578125 C-9.26570744 6.6134049 -9.6426413 8.69090348 -10.140625 12.42578125 C-10.470625 12.42578125 -10.800625 12.42578125 -11.140625 12.42578125 C-11.62890625 6.56640625 -11.62890625 6.56640625 -11.140625 4.42578125 C-7.46352266 0.81642491 -5.11107852 -0.07053257 0 0 Z " fill="#110D0E" transform="translate(55.140625,205.57421875)"/>
<path d="M0 0 C0.804375 -0.00128906 1.60875 -0.00257813 2.4375 -0.00390625 C3.283125 -0.00003906 4.12875 0.00382813 5 0.0078125 C6.2684375 0.00201172 6.2684375 0.00201172 7.5625 -0.00390625 C8.366875 -0.00261719 9.17125 -0.00132812 10 0 C10.7425 0.00112793 11.485 0.00225586 12.25 0.00341797 C14 0.1328125 14 0.1328125 15 1.1328125 C15 2.7828125 15 4.4328125 15 6.1328125 C8.4 6.1328125 1.8 6.1328125 -5 6.1328125 C-5 0.00759549 -5 0.00759549 0 0 Z " fill="#221E1E" transform="translate(54,209.8671875)"/>
<path d="M0 0 C0.91845703 -0.00386719 1.83691406 -0.00773438 2.78320312 -0.01171875 C3.65525391 -0.01042969 4.52730469 -0.00914062 5.42578125 -0.0078125 C6.22024658 -0.00668457 7.01471191 -0.00555664 7.83325195 -0.00439453 C9.6875 0.125 9.6875 0.125 10.6875 1.125 C10.77525605 3.27058827 10.79445219 5.41904421 10.78515625 7.56640625 C10.78193359 8.87158203 10.77871094 10.17675781 10.77539062 11.52148438 C10.76703401 12.9101569 10.75856905 14.29882877 10.75 15.6875 C10.74498666 17.08007656 10.74042347 18.47265481 10.73632812 19.86523438 C10.72449434 23.2851987 10.7080088 26.70507844 10.6875 30.125 C10.0275 30.125 9.3675 30.125 8.6875 30.125 C8.6875 20.885 8.6875 11.645 8.6875 2.125 C0.4375 2.125 -7.8125 2.125 -16.3125 2.125 C-16.3125 1.795 -16.3125 1.465 -16.3125 1.125 C-10.85418388 -0.01554367 -5.54724458 -0.02385912 0 0 Z " fill="#FE2424" transform="translate(242.3125,227.875)"/>
<path d="M0 0 C0.66 0.66 1.32 1.32 2 2 C1.34 2 0.68 2 0 2 C-0.33 2.99 -0.66 3.98 -1 5 C-4.69540402 6.23180134 -8.10303378 6.12412112 -11.94921875 6.09765625 C-12.72183548 6.0962413 -13.49445221 6.09482635 -14.29048157 6.09336853 C-16.75619389 6.08777466 -19.22181515 6.07522333 -21.6875 6.0625 C-23.36002473 6.05748421 -25.03255088 6.05292144 -26.70507812 6.04882812 C-30.80342046 6.03780724 -34.90169479 6.02054684 -39 6 C-39.33 5.34 -39.66 4.68 -40 4 C-38.34230591 3.97812622 -38.34230591 3.97812622 -36.65112305 3.95581055 C-32.55264861 3.89785734 -28.45472533 3.82062481 -24.35668945 3.73754883 C-22.58269188 3.70428536 -20.8085881 3.67625782 -19.03442383 3.65356445 C-16.48472824 3.62004398 -13.93600708 3.56773135 -11.38671875 3.51171875 C-10.19594978 3.50213387 -10.19594978 3.50213387 -8.98112488 3.49235535 C-4.6822091 3.4234424 -4.6822091 3.4234424 -0.97583008 1.46801758 C-0.65380615 0.98357178 -0.33178223 0.49912598 0 0 Z " fill="#0C080A" transform="translate(88,259)"/>
<path d="M0 0 C0.66 0 1.32 0 2 0 C2 2.64 2 5.28 2 8 C8.93 8 15.86 8 23 8 C24.31157516 10.62315032 23.89649988 12.23033436 23.5625 15.125 C23.46066406 16.03507812 23.35882813 16.94515625 23.25390625 17.8828125 C23.17011719 18.58148438 23.08632813 19.28015625 23 20 C22.67 20 22.34 20 22 20 C22 16.7 22 13.4 22 10 C19.74349609 10.01740234 19.74349609 10.01740234 17.44140625 10.03515625 C15.48177207 10.04453249 13.52213655 10.05363287 11.5625 10.0625 C10.07266602 10.07506836 10.07266602 10.07506836 8.55273438 10.08789062 C7.60849609 10.09111328 6.66425781 10.09433594 5.69140625 10.09765625 C4.81685791 10.10289307 3.94230957 10.10812988 3.04125977 10.11352539 C1 10 1 10 0 9 C-0.07179964 7.48071962 -0.08392007 5.95832518 -0.0625 4.4375 C-0.05347656 3.61121094 -0.04445313 2.78492188 -0.03515625 1.93359375 C-0.02355469 1.29550781 -0.01195312 0.65742188 0 0 Z " fill="#FE5252" transform="translate(425,218)"/>
<path d="M0 0 C2 2 2 2 3 5 C2.3127637 12.10144175 -0.68817068 15.4551193 -6 20 C-6.33 19.01 -6.66 18.02 -7 17 C-6.21625 16.236875 -5.4325 15.47375 -4.625 14.6875 C-1.92742283 12.09108195 -1.92742283 12.09108195 0 9 C-1.25541557 6.48916886 -2.50063488 6.12874554 -5 5 C-4.01 5 -3.02 5 -2 5 C-2 4.34 -2 3.68 -2 3 C-3.65 2.67 -5.3 2.34 -7 2 C-7 2.66 -7 3.32 -7 4 C-7.66 4 -8.32 4 -9 4 C-8.67 3.01 -8.34 2.02 -8 1 C-5.13879744 -0.43060128 -3.15989415 -0.38692581 0 0 Z " fill="#352F30" transform="translate(74,219)"/>
<path d="M0 0 C0 0.66 0 1.32 0 2 C-16.335 2.495 -16.335 2.495 -33 3 C-32.67 2.01 -32.34 1.02 -32 0 C-21.18845168 -1.0229267 -10.81452748 -0.86039692 0 0 Z " fill="#494141" transform="translate(82,245)"/>
<path d="M0 0 C4.455 0.99 4.455 0.99 9 2 C8.88660796 4.64680904 8.75987127 7.29177518 8.625 9.9375 C8.57859375 11.06961914 8.57859375 11.06961914 8.53125 12.22460938 C8.4273685 14.15507395 8.22104386 16.07942081 8 18 C7.34 18.33 6.68 18.66 6 19 C5.67 14.71 5.34 10.42 5 6 C1.7 5.67 -1.6 5.34 -5 5 C-4.67 4.01 -4.34 3.02 -4 2 C-2.02 2.495 -2.02 2.495 0 3 C0 2.01 0 1.02 0 0 Z " fill="#282729" transform="translate(81,212)"/>
<path d="M0 0 C1.92453003 0.0314209 1.92453003 0.0314209 3.88793945 0.06347656 C4.91368828 0.07196625 4.91368828 0.07196625 5.9601593 0.08062744 C8.14122969 0.1029934 10.32064824 0.15318391 12.5012207 0.20410156 C13.98101466 0.22416657 15.4608344 0.24241735 16.94067383 0.25878906 C20.5655583 0.30285682 24.18947826 0.37188334 27.8137207 0.45410156 C27.8137207 0.78410156 27.8137207 1.11410156 27.8137207 1.45410156 C27.04705078 1.46868408 26.28038086 1.4832666 25.49047852 1.49829102 C22.01438577 1.57279376 18.53925103 1.66944803 15.0637207 1.76660156 C13.8571582 1.78916016 12.6505957 1.81171875 11.4074707 1.83496094 C10.24731445 1.87041016 9.0871582 1.90585938 7.8918457 1.94238281 C6.82353516 1.96856689 5.75522461 1.99475098 4.65454102 2.02172852 C1.50255245 2.50146139 0.07693221 3.23940188 -2.1862793 5.45410156 C-2.59424313 7.66998996 -2.59424313 7.66998996 -2.3112793 10.01660156 C-2.1315918 12.39550781 -2.1315918 12.39550781 -2.1862793 14.45410156 C-2.8462793 15.11410156 -3.5062793 15.77410156 -4.1862793 16.45410156 C-4.24686523 15.75542969 -4.30745117 15.05675781 -4.36987305 14.33691406 C-4.45366211 13.42683594 -4.53745117 12.51675781 -4.6237793 11.57910156 C-4.70499023 10.67417969 -4.78620117 9.76925781 -4.86987305 8.83691406 C-5.05617214 6.44299296 -5.05617214 6.44299296 -6.1862793 4.45410156 C-4.45569824 1.22219252 -3.70775861 0.52842165 0 0 Z " fill="#2F2E2F" transform="translate(47.186279296875,204.5458984375)"/>
<path d="M0 0 C3.63 0 7.26 0 11 0 C9 5 9 5 6.8125 6.8125 C3.32787305 8.28378693 0.74778798 8.3535649 -3 8 C-3.66 7.34 -4.32 6.68 -5 6 C-4.31292969 5.95101562 -3.62585938 5.90203125 -2.91796875 5.8515625 C-2.01691406 5.77679688 -1.11585938 5.70203125 -0.1875 5.625 C0.70582031 5.55539063 1.59914062 5.48578125 2.51953125 5.4140625 C5.24398499 5.13354964 5.24398499 5.13354964 8 3 C6.865625 2.87625 5.73125 2.7525 4.5625 2.625 C3.386875 2.41875 2.21125 2.2125 1 2 C0.67 1.34 0.34 0.68 0 0 Z " fill="#FE4545" transform="translate(226,239)"/>
<path d="M0 0 C0.84755859 0.00966797 1.69511719 0.01933594 2.56835938 0.02929688 C3.44943359 0.05443359 4.33050781 0.07957031 5.23828125 0.10546875 C6.13095703 0.11900391 7.02363281 0.13253906 7.94335938 0.14648438 C10.14644291 0.18182796 12.34830707 0.23116382 14.55078125 0.29296875 C14.55078125 0.62296875 14.55078125 0.95296875 14.55078125 1.29296875 C13.27460937 1.33035156 11.9984375 1.36773437 10.68359375 1.40625 C9.01429287 1.47189666 7.34502336 1.53834445 5.67578125 1.60546875 C4.41314453 1.63930664 4.41314453 1.63930664 3.125 1.67382812 C1.91650391 1.72700195 1.91650391 1.72700195 0.68359375 1.78125 C-0.06003418 1.80743408 -0.80366211 1.83361816 -1.56982422 1.8605957 C-3.85655701 2.16026466 -3.85655701 2.16026466 -5.44921875 5.29296875 C-5.83935591 7.28266825 -6.18124524 9.28316744 -6.44921875 11.29296875 C-6.77921875 11.29296875 -7.10921875 11.29296875 -7.44921875 11.29296875 C-7.81905883 3.77288721 -7.81905883 3.77288721 -6.20898438 1.68359375 C-3.97820748 -0.07923993 -2.81573165 -0.05669258 0 0 Z " fill="#191516" transform="translate(51.44921875,206.70703125)"/>
<path d="M0 0 C0 0.33 0 0.66 0 1 C6.93 1.495 6.93 1.495 14 2 C14 2.33 14 2.66 14 3 C7.07 3 0.14 3 -7 3 C-7 2.34 -7 1.68 -7 1 C-4.53721199 -0.231394 -2.7204945 -0.07159196 0 0 Z " fill="#2B2929" transform="translate(56,252)"/>
<path d="M0 0 C1.670625 0.061875 1.670625 0.061875 3.375 0.125 C4.68657516 2.74815032 4.27149988 4.35533436 3.9375 7.25 C3.83566406 8.16007813 3.73382813 9.07015625 3.62890625 10.0078125 C3.54511719 10.70648438 3.46132813 11.40515625 3.375 12.125 C3.045 12.125 2.715 12.125 2.375 12.125 C2.375 8.825 2.375 5.525 2.375 2.125 C-0.265 2.125 -2.905 2.125 -5.625 2.125 C-3.625 0.125 -3.625 0.125 0 0 Z " fill="#FE6060" transform="translate(444.625,225.875)"/>
<path d="M0 0 C4.82360189 -0.19294408 8.49646738 0.24252386 13 2 C13 2.33 13 2.66 13 3 C8.71 3 4.42 3 0 3 C0 2.01 0 1.02 0 0 Z " fill="#FF1515" transform="translate(427,217)"/>
<path d="M0 0 C0.33 0.99 0.66 1.98 1 3 C-0.36328125 5.0078125 -0.36328125 5.0078125 -2.3125 7.125 C-2.94800781 7.82882813 -3.58351563 8.53265625 -4.23828125 9.2578125 C-6 11 -6 11 -8 12 C-7.52584717 7.73262454 -5.00349628 5.85698427 -2 3 C-1.34 2.01 -0.68 1.02 0 0 Z " fill="#483E3F" transform="translate(75,227)"/>
<path d="M0 0 C0.33 0.66 0.66 1.32 1 2 C1.99 2 2.98 2 4 2 C3.67 4.31 3.34 6.62 3 9 C2.34 9 1.68 9 1 9 C0.67 6.03 0.34 3.06 0 0 Z " fill="#FF1D1D" transform="translate(145,228)"/>
<path d="M0 0 C0.66 0.66 1.32 1.32 2 2 C1.34 2 0.68 2 0 2 C-0.33 2.99 -0.66 3.98 -1 5 C-2.98 5.33 -4.96 5.66 -7 6 C-7.33 5.34 -7.66 4.68 -8 4 C-6.576875 3.566875 -6.576875 3.566875 -5.125 3.125 C-1.94788422 2.23174891 -1.94788422 2.23174891 0 0 Z " fill="#1B1111" transform="translate(88,259)"/>
<path d="M0 0 C0.66 0 1.32 0 2 0 C2 1.32 2 2.64 2 4 C3.65 4.33 5.3 4.66 7 5 C7 5.33 7 5.66 7 6 C5.00045254 6.04254356 2.99958364 6.04080783 1 6 C0 5 0 5 -0.0625 2.4375 C-0.041875 1.633125 -0.02125 0.82875 0 0 Z " fill="#151213" transform="translate(77,210)"/>
<path d="M0 0 C0.99 0.33 1.98 0.66 3 1 C2 3 2 3 0.0625 3.9375 C-2.31971493 4.95345922 -2.31971493 4.95345922 -4 8 C-3.50168276 4.31245243 -2.89932357 2.39509338 0 0 Z " fill="#1C1717" transform="translate(59,222)"/>
</svg>
