<svg id="svg" version="1.1" xmlns="http://www.w3.org/2000/svg" xmlns:xlink="http://www.w3.org/1999/xlink" width="400" height="400" viewBox="0, 0, 400,400"><g id="svgg"><path id="path0" d="M0.000 200.000 L 0.000 400.000 200.000 400.000 L 400.000 400.000 400.000 200.000 L 400.000 0.000 200.000 0.000 L 0.000 0.000 0.000 200.000 M53.729 163.195 L 62.458 163.200 67.430 168.100 L 72.403 173.000 72.401 189.516 C 72.399 213.144,73.867 211.493,52.719 211.662 L 38.498 211.776 36.549 210.583 C 32.730 208.246,32.800 208.677,32.800 187.594 L 32.800 169.357 33.828 167.294 C 35.425 164.090,39.810 162.296,44.200 163.051 C 44.640 163.127,48.928 163.192,53.729 163.195 M188.567 164.643 C 196.101 166.593,201.252 171.666,201.880 177.753 L 202.112 180.000 195.536 180.000 L 188.961 180.000 188.462 178.620 C 186.479 173.136,176.236 172.992,173.205 178.405 C 171.691 181.110,171.685 190.100,173.196 192.739 C 175.701 197.114,183.084 198.185,187.005 194.742 C 189.565 192.494,189.070 192.043,183.900 191.913 L 179.400 191.800 179.287 187.511 C 179.148 182.258,177.881 182.741,191.400 182.888 L 201.800 183.000 201.906 194.573 C 202.027 207.768,202.325 206.788,198.200 206.788 C 194.966 206.788,194.743 206.682,194.008 204.800 C 193.708 204.030,193.425 203.347,193.379 203.281 C 193.333 203.216,192.149 203.787,190.748 204.551 C 178.239 211.368,162.958 206.751,158.960 194.947 C 152.176 174.915,167.532 159.197,188.567 164.643 M230.066 164.822 C 239.556 168.019,242.201 177.615,235.759 185.476 C 234.233 187.338,231.317 189.686,226.148 193.213 C 221.948 196.079,221.799 196.000,231.424 196.000 C 240.872 196.000,240.000 195.432,240.000 201.584 C 240.000 207.352,241.851 206.827,221.954 206.704 L 205.000 206.600 204.882 203.675 C 204.661 198.191,206.380 195.810,216.600 187.441 C 225.376 180.255,226.400 179.169,226.400 177.052 C 226.400 171.811,217.672 171.442,216.608 176.639 C 215.918 180.010,216.287 179.787,211.191 179.916 C 204.536 180.084,204.654 180.141,204.888 176.873 C 205.618 166.660,217.972 160.748,230.066 164.822 M99.920 164.880 C 100.612 165.572,100.612 205.628,99.920 206.320 C 99.588 206.652,97.520 206.800,93.200 206.800 C 88.880 206.800,86.812 206.652,86.480 206.320 C 85.788 205.628,85.788 165.572,86.480 164.880 C 86.812 164.548,88.880 164.400,93.200 164.400 C 97.520 164.400,99.588 164.548,99.920 164.880 M123.855 164.706 C 124.265 164.971,125.013 167.568,128.257 180.000 C 130.572 188.871,129.813 189.979,134.830 170.400 C 135.535 167.650,136.289 165.175,136.505 164.900 C 136.919 164.374,153.260 164.141,154.567 164.643 C 155.533 165.013,155.533 206.187,154.567 206.557 C 153.078 207.129,142.113 206.818,141.592 206.190 C 141.199 205.717,141.131 203.109,141.290 194.576 C 141.402 188.524,141.427 183.640,141.345 183.722 C 141.263 183.804,139.826 188.895,138.153 195.035 C 136.479 201.176,134.905 206.332,134.655 206.494 C 133.836 207.023,124.541 206.853,124.086 206.300 C 123.860 206.025,122.353 201.030,120.737 195.200 L 117.800 184.600 117.693 195.381 C 117.614 203.393,117.460 206.241,117.093 206.474 C 116.515 206.842,106.362 206.914,105.433 206.557 C 104.773 206.304,104.415 165.319,105.067 164.667 C 105.432 164.302,123.287 164.339,123.855 164.706 M272.418 165.640 C 282.893 170.553,283.257 186.564,273.016 191.927 C 271.130 192.915,270.563 192.997,264.200 193.192 L 257.400 193.400 257.289 199.783 C 257.212 204.275,257.034 206.258,256.689 206.477 C 256.115 206.842,244.760 206.913,243.833 206.557 C 242.984 206.231,242.853 165.016,243.700 164.652 C 243.975 164.534,250.050 164.474,257.200 164.519 L 270.200 164.600 272.418 165.640 M309.948 165.323 C 317.718 167.600,322.002 172.340,323.404 180.214 C 325.723 193.228,320.745 202.721,309.948 205.875 C 307.695 206.532,286.300 207.163,284.191 206.633 L 283.200 206.385 283.200 185.626 C 283.200 169.404,283.309 164.818,283.700 164.645 C 284.924 164.101,307.794 164.693,309.948 165.323 M361.000 169.800 L 361.000 175.000 351.100 175.107 L 341.200 175.214 341.200 178.407 L 341.200 181.600 349.800 181.600 L 358.400 181.600 358.400 186.557 C 358.400 192.558,359.347 192.000,349.167 192.000 L 341.200 192.000 341.200 198.920 C 341.200 207.476,341.818 206.800,334.000 206.800 C 329.680 206.800,327.612 206.652,327.280 206.320 C 326.584 205.624,326.588 165.572,327.284 164.876 C 327.651 164.509,331.795 164.417,344.384 164.496 L 361.000 164.600 361.000 169.800 M38.128 166.872 C 36.285 167.771,36.091 170.843,36.310 195.669 L 36.400 205.938 37.631 207.169 L 38.862 208.400 52.257 208.400 C 70.911 208.400,69.256 210.246,69.106 189.604 L 69.000 175.009 64.546 175.141 C 59.241 175.298,59.488 175.525,59.438 170.437 L 59.400 166.600 49.200 166.524 C 42.658 166.474,38.687 166.599,38.128 166.872 M54.974 169.571 C 55.775 170.456,55.523 171.828,54.473 172.308 C 54.103 172.477,50.650 172.522,46.800 172.408 L 39.800 172.200 39.671 171.076 C 39.425 168.927,39.854 168.800,47.387 168.800 C 53.683 168.800,54.336 168.866,54.974 169.571 M63.200 170.180 C 63.200 171.536,63.263 171.600,64.600 171.600 C 65.370 171.600,66.000 171.441,66.000 171.247 C 66.000 171.054,65.370 170.414,64.600 169.827 L 63.200 168.759 63.200 170.180 M257.200 179.000 L 257.200 182.800 260.546 182.800 C 265.178 182.800,266.797 181.388,266.126 177.932 C 265.692 175.695,264.725 175.200,260.784 175.200 L 257.200 175.200 257.200 179.000 M297.600 185.600 L 297.600 196.000 300.700 195.991 C 307.302 195.973,309.580 193.306,309.580 185.600 C 309.580 177.894,307.302 175.227,300.700 175.209 L 297.600 175.200 297.600 185.600 M51.203 176.401 L 52.773 177.203 54.534 176.347 C 59.480 173.944,65.220 179.688,63.195 185.014 C 62.421 187.049,53.926 195.200,52.579 195.200 C 51.687 195.200,44.409 188.443,43.133 186.429 C 39.411 180.561,45.216 173.347,51.203 176.401 M46.694 179.700 C 45.797 180.382,45.125 182.322,45.431 183.353 C 45.726 184.351,51.972 190.800,52.642 190.800 C 53.335 190.800,58.750 185.658,59.417 184.366 C 61.442 180.451,57.822 177.741,54.393 180.606 L 52.710 182.012 51.154 180.606 C 49.508 179.119,47.892 178.791,46.694 179.700 M65.200 197.200 C 66.173 198.173,66.203 198.712,65.338 199.669 C 64.511 200.582,40.976 200.816,40.080 199.920 C 39.243 199.083,39.495 197.217,40.500 196.812 C 42.562 195.984,64.325 196.325,65.200 197.200 M65.768 203.302 C 66.484 205.336,66.187 205.390,53.451 205.517 C 40.560 205.645,39.600 205.518,39.600 203.677 C 39.600 201.946,39.298 201.982,52.763 202.094 L 65.381 202.200 65.768 203.302 " stroke="none" fill="#fbfbfb" fill-rule="evenodd"></path><path id="path1" d="M175.000 164.775 C 163.967 166.593,158.400 173.653,158.400 185.830 C 158.400 193.829,160.625 199.597,164.998 202.937 C 171.339 207.778,183.886 208.062,191.249 203.532 C 193.479 202.160,193.875 202.275,194.635 204.518 L 195.069 205.800 198.335 205.916 L 201.600 206.032 201.600 194.816 L 201.600 183.600 190.800 183.600 L 180.000 183.600 180.000 187.400 L 180.000 191.200 184.413 191.200 C 189.324 191.200,189.706 191.414,188.782 193.644 C 187.159 197.562,179.122 198.685,174.850 195.590 C 169.500 191.715,169.970 177.889,175.548 175.032 C 180.497 172.498,186.867 173.872,188.839 177.900 L 189.671 179.600 195.393 179.600 C 201.894 179.600,201.851 179.623,201.034 176.537 C 198.706 167.735,187.570 162.705,175.000 164.775 M218.200 164.652 C 210.771 165.807,205.350 171.082,205.677 176.835 L 205.800 179.000 210.700 179.112 L 215.600 179.225 215.600 178.199 C 215.600 172.845,223.358 170.128,226.410 174.415 C 228.773 177.732,227.676 179.260,216.240 188.588 C 207.445 195.762,205.767 198.021,205.315 203.300 L 205.084 206.000 222.155 206.000 L 239.225 206.000 239.113 201.300 L 239.000 196.600 230.433 196.400 C 220.559 196.169,220.486 196.132,224.686 193.400 C 235.205 186.558,238.400 182.635,238.400 176.562 C 238.400 168.061,229.609 162.877,218.200 164.652 M86.800 185.600 L 86.800 206.000 93.200 206.000 L 99.600 206.000 99.600 185.600 L 99.600 165.200 93.200 165.200 L 86.800 165.200 86.800 185.600 M105.200 185.593 L 105.200 206.000 111.035 206.000 L 116.869 206.000 116.670 193.700 C 116.561 186.935,116.345 180.815,116.190 180.100 C 116.036 179.385,116.066 178.800,116.257 178.800 C 116.760 178.800,117.427 180.506,118.527 184.600 C 119.727 189.066,123.040 201.070,123.857 203.912 L 124.464 206.023 129.493 205.912 L 134.521 205.800 138.161 192.527 C 140.162 185.227,141.918 179.138,142.063 178.997 C 142.208 178.856,142.225 184.874,142.102 192.370 L 141.878 206.000 148.139 206.000 L 154.400 206.000 154.400 185.600 L 154.400 165.200 145.652 165.200 L 136.904 165.200 136.453 166.900 C 135.332 171.122,133.593 177.815,132.425 182.400 C 130.586 189.622,130.209 190.027,129.140 185.931 C 128.776 184.539,127.721 180.520,126.794 177.000 C 125.867 173.480,124.806 169.430,124.437 168.000 L 123.765 165.400 114.482 165.293 L 105.200 165.185 105.200 185.593 M244.000 185.580 L 244.000 206.000 250.200 206.000 L 256.400 206.000 256.405 200.300 C 256.413 192.082,255.843 192.800,262.363 192.800 C 270.186 192.800,273.777 191.682,276.552 188.384 C 282.361 181.480,280.317 170.182,272.569 166.369 C 270.622 165.411,270.448 165.399,257.300 165.280 L 244.000 165.160 244.000 185.580 M284.000 185.565 L 284.000 206.000 294.500 205.992 C 308.671 205.981,312.121 205.348,316.556 201.946 C 326.615 194.232,325.208 173.277,314.258 167.728 C 309.997 165.569,309.420 165.491,296.300 165.305 L 284.000 165.131 284.000 185.565 M327.600 185.600 L 327.600 206.000 333.991 206.000 L 340.382 206.000 340.491 198.700 L 340.600 191.400 349.000 191.200 L 357.400 191.000 357.514 186.700 L 357.627 182.400 349.463 182.400 C 339.814 182.400,340.318 182.651,340.483 177.939 L 340.600 174.600 350.600 174.400 L 360.600 174.200 360.713 169.700 L 360.826 165.200 344.213 165.200 L 327.600 165.200 327.600 185.600 M265.417 175.313 C 267.378 177.000,267.181 181.461,265.088 182.783 C 263.875 183.550,257.800 183.864,257.001 183.201 C 256.377 182.683,256.136 177.226,256.652 175.300 C 257.021 173.923,263.813 173.933,265.417 175.313 M304.917 175.034 C 308.676 176.314,310.140 179.276,310.140 185.600 C 310.140 193.978,307.267 197.047,299.732 196.719 L 297.000 196.600 296.893 186.006 C 296.834 180.180,296.874 175.185,296.981 174.906 C 297.264 174.169,302.631 174.255,304.917 175.034 " stroke="none" fill="#fc3535" fill-rule="evenodd"></path><path id="path2" d="M38.123 163.879 C 37.148 164.069,34.872 166.114,34.100 167.495 C 33.719 168.175,33.600 172.962,33.600 187.535 L 33.600 206.682 34.512 208.035 C 36.601 211.134,36.894 211.186,52.451 211.193 C 73.350 211.203,72.000 212.702,72.000 189.494 L 72.000 173.348 67.440 168.822 C 64.932 166.333,62.637 164.143,62.340 163.954 C 61.807 163.617,39.825 163.549,38.123 163.879 M59.913 170.087 L 60.027 174.375 64.713 174.487 L 69.400 174.600 69.506 189.800 C 69.653 210.866,71.506 208.800,52.461 208.800 C 33.722 208.800,35.613 211.250,35.632 187.000 C 35.650 163.734,34.471 165.536,49.569 165.693 L 59.800 165.800 59.913 170.087 M65.100 169.634 C 67.306 171.744,67.249 172.068,64.700 171.921 C 62.639 171.802,62.598 171.775,62.472 170.462 C 62.197 167.597,62.778 167.414,65.100 169.634 M40.073 170.700 L 40.200 171.800 47.244 171.909 C 54.622 172.023,55.668 171.795,55.057 170.205 C 54.862 169.695,53.657 169.600,47.386 169.600 L 39.947 169.600 40.073 170.700 M46.336 176.538 C 43.065 177.991,41.315 182.451,42.895 185.305 C 44.059 187.409,51.615 194.400,52.724 194.400 C 53.963 194.400,61.872 186.717,62.729 184.681 C 64.806 179.747,59.433 174.570,54.596 176.844 L 52.800 177.688 51.004 176.844 C 49.010 175.907,47.918 175.835,46.336 176.538 M51.200 180.000 C 52.599 181.498,52.845 181.494,54.389 179.950 C 57.056 177.283,62.063 180.382,60.389 183.664 C 59.785 184.849,53.158 191.600,52.600 191.600 C 52.058 191.600,45.824 185.266,45.244 184.126 C 43.336 180.374,48.323 176.920,51.200 180.000 M40.461 197.554 C 40.164 197.742,39.986 198.234,40.066 198.648 C 40.267 199.695,64.339 200.038,65.195 199.006 C 65.597 198.522,65.597 198.279,65.200 197.800 C 64.637 197.121,41.507 196.891,40.461 197.554 M40.500 202.665 C 40.225 202.776,40.000 203.302,40.000 203.833 L 40.000 204.800 52.557 204.800 C 65.829 204.800,66.600 204.687,65.158 202.949 C 64.706 202.405,41.799 202.141,40.500 202.665 " stroke="none" fill="#373838" fill-rule="evenodd"></path><path id="path3" d="M40.600 163.157 C 36.951 163.474,35.198 164.544,33.828 167.294 L 32.800 169.357 32.800 187.594 C 32.800 208.677,32.730 208.246,36.549 210.583 L 38.498 211.776 52.719 211.662 C 73.867 211.493,72.399 213.144,72.401 189.516 L 72.403 173.000 67.430 168.100 L 62.458 163.200 53.729 163.195 C 48.928 163.192,44.640 163.127,44.200 163.051 C 43.760 162.976,42.140 163.023,40.600 163.157 M64.092 165.500 C 65.223 166.545,67.466 168.723,69.075 170.339 L 72.000 173.278 72.000 189.390 C 72.000 206.918,71.971 207.174,69.733 209.251 C 67.631 211.202,67.646 211.200,52.526 211.199 C 36.479 211.197,36.914 211.269,34.581 208.211 L 33.470 206.754 33.435 187.877 C 33.387 161.790,32.124 163.606,50.317 163.602 L 62.034 163.600 64.092 165.500 M179.091 163.889 C 179.801 163.977,181.061 163.979,181.891 163.892 C 182.721 163.805,182.140 163.733,180.600 163.731 C 179.060 163.729,178.381 163.800,179.091 163.889 M221.500 163.889 C 222.215 163.978,223.385 163.978,224.100 163.889 C 224.815 163.801,224.230 163.728,222.800 163.728 C 221.370 163.728,220.785 163.801,221.500 163.889 M173.600 164.400 C 172.256 164.831,173.708 164.831,175.400 164.400 C 176.478 164.126,176.498 164.094,175.600 164.087 C 175.050 164.083,174.150 164.224,173.600 164.400 M185.800 164.400 C 187.492 164.831,188.944 164.831,187.600 164.400 C 187.050 164.224,186.150 164.083,185.600 164.087 C 184.702 164.094,184.722 164.126,185.800 164.400 M216.400 164.400 C 215.608 164.654,215.567 164.720,216.200 164.720 C 216.640 164.720,217.450 164.576,218.000 164.400 C 218.792 164.146,218.833 164.080,218.200 164.080 C 217.760 164.080,216.950 164.224,216.400 164.400 M227.200 164.400 C 227.750 164.576,228.560 164.720,229.000 164.720 C 229.633 164.720,229.592 164.654,228.800 164.400 C 228.250 164.224,227.440 164.080,227.000 164.080 C 226.367 164.080,226.408 164.146,227.200 164.400 M89.900 164.698 C 91.715 164.772,94.685 164.772,96.500 164.698 C 98.315 164.623,96.830 164.563,93.200 164.563 C 89.570 164.563,88.085 164.623,89.900 164.698 M105.061 164.700 C 104.959 164.865,107.693 164.954,111.137 164.897 C 122.698 164.707,123.867 164.563,114.524 164.481 C 109.422 164.437,105.163 164.535,105.061 164.700 M136.480 164.880 C 136.216 165.144,136.000 165.538,136.000 165.756 C 136.000 165.975,136.225 165.850,136.500 165.481 C 136.937 164.893,138.105 164.794,145.800 164.696 L 154.600 164.584 145.780 164.492 C 139.347 164.425,136.830 164.530,136.480 164.880 M250.100 164.699 C 253.565 164.766,259.235 164.766,262.700 164.699 C 266.165 164.633,263.330 164.578,256.400 164.578 C 249.470 164.578,246.635 164.633,250.100 164.699 M283.700 164.665 C 282.853 165.007,282.983 206.231,283.833 206.557 C 284.181 206.691,289.176 206.759,294.933 206.710 L 305.400 206.620 294.600 206.410 L 283.800 206.200 283.800 185.600 L 283.800 165.000 294.600 164.790 L 305.400 164.580 294.800 164.522 C 288.970 164.490,283.975 164.554,283.700 164.665 M344.100 164.698 L 360.800 164.809 360.800 169.797 L 360.800 174.786 350.900 174.893 L 341.000 175.000 340.976 178.200 L 340.952 181.400 341.092 178.307 L 341.232 175.214 351.116 175.107 L 361.000 175.000 361.000 169.800 L 361.000 164.600 344.200 164.593 L 327.400 164.587 344.100 164.698 M124.056 165.200 C 124.056 165.530,124.211 166.160,124.400 166.600 C 124.617 167.104,124.744 167.178,124.744 166.800 C 124.744 166.470,124.589 165.840,124.400 165.400 C 124.183 164.896,124.056 164.822,124.056 165.200 M189.400 165.200 C 189.840 165.389,190.470 165.544,190.800 165.544 C 191.178 165.544,191.104 165.417,190.600 165.200 C 190.160 165.011,189.530 164.856,189.200 164.856 C 188.822 164.856,188.896 164.983,189.400 165.200 M307.600 165.200 C 308.150 165.376,308.960 165.520,309.400 165.520 C 310.033 165.520,309.992 165.454,309.200 165.200 C 308.650 165.024,307.840 164.880,307.400 164.880 C 306.767 164.880,306.808 164.946,307.600 165.200 M86.186 185.600 C 86.186 196.930,86.237 201.565,86.300 195.900 C 86.362 190.235,86.362 180.965,86.300 175.300 C 86.237 169.635,86.186 174.270,86.186 185.600 M100.186 185.600 C 100.186 196.930,100.237 201.565,100.300 195.900 C 100.362 190.235,100.362 180.965,100.300 175.300 C 100.237 169.635,100.186 174.270,100.186 185.600 M326.986 185.600 C 326.986 196.930,327.037 201.565,327.100 195.900 C 327.162 190.235,327.162 180.965,327.100 175.300 C 327.037 169.635,326.986 174.270,326.986 185.600 M38.581 166.159 C 35.578 167.476,35.468 168.389,35.818 189.125 L 36.112 206.450 37.287 207.625 L 38.462 208.800 52.445 208.800 C 71.489 208.800,69.650 210.849,69.505 189.786 L 69.400 174.600 64.713 174.487 L 60.027 174.375 59.913 170.087 L 59.800 165.800 49.800 165.712 C 42.171 165.645,39.511 165.751,38.581 166.159 M191.600 165.792 C 191.600 165.945,193.992 167.200,194.285 167.200 C 194.374 167.200,194.347 167.038,194.224 166.839 C 193.998 166.474,191.600 165.516,191.600 165.792 M59.438 170.437 C 59.488 175.525,59.241 175.298,64.546 175.141 L 69.000 175.009 69.106 189.604 C 69.256 210.246,70.911 208.400,52.257 208.400 L 38.862 208.400 37.631 207.169 L 36.400 205.938 36.310 195.669 C 36.163 179.063,36.341 169.507,36.818 168.356 C 37.565 166.554,38.319 166.442,49.200 166.524 L 59.400 166.600 59.438 170.437 M208.877 168.259 L 207.000 170.118 209.000 168.391 C 210.100 167.441,211.075 166.604,211.167 166.532 C 211.258 166.459,211.203 166.400,211.043 166.400 C 210.884 166.400,209.909 167.237,208.877 168.259 M135.429 167.829 C 135.281 168.415,135.251 168.984,135.361 169.094 C 135.471 169.204,135.681 168.815,135.829 168.229 C 135.976 167.642,136.006 167.073,135.896 166.963 C 135.786 166.853,135.576 167.242,135.429 167.829 M235.983 168.700 C 236.726 169.635,237.406 170.400,237.494 170.400 C 237.777 170.400,236.063 168.149,235.335 167.564 C 234.948 167.254,235.240 167.765,235.983 168.700 M275.200 167.325 C 275.200 167.394,275.785 167.979,276.500 168.625 L 277.800 169.800 276.625 168.500 C 275.530 167.288,275.200 167.016,275.200 167.325 M124.806 168.233 C 124.809 168.655,124.995 169.270,125.218 169.600 C 125.515 170.038,125.552 169.876,125.356 169.000 C 125.027 167.529,124.798 167.210,124.806 168.233 M62.667 168.267 C 62.333 168.600,62.319 170.523,62.643 171.367 C 62.906 172.052,66.800 172.318,66.800 171.651 C 66.800 171.331,63.402 168.000,63.076 168.000 C 62.997 168.000,62.813 168.120,62.667 168.267 M162.858 170.176 C 161.726 171.373,160.800 172.483,160.800 172.643 C 160.800 172.803,160.856 172.858,160.924 172.767 C 160.992 172.675,162.008 171.565,163.182 170.300 C 164.356 169.035,165.226 168.000,165.116 168.000 C 165.006 168.000,163.990 168.979,162.858 170.176 M197.616 169.800 C 198.598 170.900,199.725 172.250,200.119 172.800 C 200.810 173.766,200.811 173.756,200.129 172.497 C 199.741 171.780,198.615 170.430,197.626 169.497 L 195.829 167.800 197.616 169.800 M40.020 169.376 C 39.757 169.693,39.600 170.458,39.671 171.076 L 39.800 172.200 46.800 172.408 C 50.650 172.522,54.103 172.477,54.473 172.308 C 55.523 171.828,55.775 170.456,54.974 169.571 C 54.049 168.549,40.849 168.377,40.020 169.376 M66.000 171.247 C 66.000 171.441,65.370 171.600,64.600 171.600 C 63.263 171.600,63.200 171.536,63.200 170.180 L 63.200 168.759 64.600 169.827 C 65.370 170.414,66.000 171.054,66.000 171.247 M318.788 170.700 C 319.744 171.855,320.599 172.800,320.690 172.800 C 321.010 172.800,319.263 170.586,318.165 169.600 C 317.531 169.031,317.800 169.505,318.788 170.700 M54.624 169.777 C 56.724 171.336,55.059 171.800,47.356 171.800 L 40.200 171.800 40.074 170.710 L 39.949 169.620 46.674 169.499 C 50.373 169.433,53.501 169.339,53.624 169.290 C 53.746 169.240,54.196 169.459,54.624 169.777 M134.629 171.029 C 134.481 171.615,134.438 172.172,134.532 172.266 C 134.627 172.360,134.824 171.958,134.971 171.371 C 135.119 170.785,135.162 170.228,135.068 170.134 C 134.973 170.040,134.776 170.442,134.629 171.029 M125.656 171.200 C 125.656 171.530,125.811 172.160,126.000 172.600 C 126.217 173.104,126.344 173.178,126.344 172.800 C 126.344 172.470,126.189 171.840,126.000 171.400 C 125.783 170.896,125.656 170.822,125.656 171.200 M238.662 173.800 C 238.796 174.680,238.972 175.475,239.053 175.567 C 239.356 175.910,239.129 173.768,238.781 173.000 C 238.529 172.442,238.493 172.685,238.662 173.800 M134.046 173.267 C 134.021 173.634,133.896 174.264,133.770 174.667 C 133.552 175.362,133.563 175.363,133.997 174.687 C 134.248 174.296,134.373 173.666,134.273 173.287 C 134.111 172.668,134.088 172.666,134.046 173.267 M217.856 174.121 C 216.415 175.480,215.786 176.982,216.118 178.268 C 216.242 178.749,216.323 178.615,216.354 177.880 C 216.445 175.673,218.093 173.631,220.217 173.092 C 220.929 172.911,220.921 172.889,220.128 172.846 C 219.644 172.821,218.635 173.387,217.856 174.121 M279.212 173.200 C 279.212 173.530,279.387 174.070,279.600 174.400 C 279.945 174.933,279.988 174.933,279.988 174.400 C 279.988 174.070,279.813 173.530,279.600 173.200 C 279.255 172.667,279.212 172.667,279.212 173.200 M159.781 174.437 C 159.429 175.118,159.212 175.745,159.299 175.832 C 159.386 175.919,159.756 175.362,160.122 174.595 C 160.944 172.870,160.659 172.738,159.781 174.437 M126.406 174.233 C 126.409 174.655,126.595 175.270,126.818 175.600 C 127.115 176.038,127.152 175.876,126.956 175.000 C 126.627 173.529,126.398 173.210,126.406 174.233 M205.069 174.756 C 204.921 175.495,204.820 176.483,204.844 176.950 C 204.868 177.418,205.047 176.990,205.242 176.000 C 205.437 175.010,205.538 174.023,205.467 173.806 C 205.396 173.590,205.217 174.017,205.069 174.756 M176.300 175.029 C 175.695 175.357,175.200 175.716,175.200 175.827 C 175.200 175.938,175.594 175.817,176.077 175.559 C 176.559 175.301,177.414 174.950,177.977 174.779 C 178.777 174.536,178.826 174.465,178.200 174.450 C 177.760 174.440,176.905 174.701,176.300 175.029 M256.886 178.900 L 257.000 183.000 260.173 183.118 C 264.463 183.278,267.068 181.921,266.278 179.939 C 266.154 179.627,266.050 179.767,266.032 180.271 C 265.969 182.000,264.234 182.800,260.546 182.800 L 257.200 182.800 257.200 179.016 L 257.200 175.231 260.700 175.098 L 264.200 174.965 260.486 174.882 L 256.772 174.800 256.886 178.900 M297.380 175.307 C 297.273 175.586,297.234 180.401,297.293 186.007 L 297.400 196.200 300.102 196.230 L 302.803 196.259 300.202 196.111 L 297.600 195.963 297.600 185.599 L 297.600 175.235 300.500 175.097 L 303.400 174.959 300.487 174.879 C 298.444 174.824,297.517 174.951,297.380 175.307 M186.345 175.847 C 186.853 176.202,187.612 177.057,188.033 177.747 C 188.453 178.436,188.798 178.781,188.799 178.514 C 188.800 177.870,186.441 175.200,185.870 175.200 C 185.623 175.200,185.837 175.491,186.345 175.847 M265.184 176.075 C 265.633 176.557,266.021 177.322,266.046 177.775 C 266.082 178.415,266.133 178.448,266.271 177.924 C 266.464 177.193,265.343 175.200,264.738 175.200 C 264.535 175.200,264.736 175.594,265.184 176.075 M305.429 175.958 C 306.325 176.365,307.470 177.216,307.973 177.849 C 308.706 178.772,308.772 178.802,308.303 178.000 C 307.617 176.827,305.360 175.196,304.441 175.209 C 304.088 175.214,304.533 175.551,305.429 175.958 M45.498 176.428 C 42.008 178.270,40.908 182.922,43.133 186.429 C 44.409 188.443,51.687 195.200,52.579 195.200 C 53.926 195.200,62.421 187.049,63.195 185.014 C 65.220 179.688,59.480 173.944,54.534 176.347 L 52.773 177.203 51.203 176.401 C 49.238 175.399,47.432 175.407,45.498 176.428 M226.501 177.000 C 226.505 177.880,226.587 178.193,226.683 177.695 C 226.779 177.198,226.775 176.478,226.675 176.095 C 226.575 175.713,226.496 176.120,226.501 177.000 M280.140 178.800 C 280.140 180.670,280.209 181.435,280.293 180.500 C 280.377 179.565,280.377 178.035,280.293 177.100 C 280.209 176.165,280.140 176.930,280.140 178.800 M51.162 176.874 L 52.800 177.748 54.438 176.874 C 59.450 174.199,65.440 180.568,62.456 185.400 C 61.735 186.567,59.262 189.184,55.509 192.750 C 52.819 195.307,52.401 195.190,47.605 190.550 C 42.984 186.079,42.400 185.187,42.400 182.600 C 42.400 177.681,47.019 174.663,51.162 176.874 M133.246 176.467 C 133.221 176.834,133.096 177.464,132.970 177.867 C 132.752 178.562,132.763 178.563,133.197 177.887 C 133.448 177.496,133.573 176.866,133.473 176.487 C 133.311 175.868,133.288 175.866,133.246 176.467 M127.234 177.400 C 127.222 177.840,127.387 178.470,127.600 178.800 C 128.114 179.595,128.114 178.596,127.600 177.400 L 127.256 176.600 127.234 177.400 M201.709 178.400 C 201.709 179.390,201.787 179.795,201.882 179.300 C 201.978 178.805,201.978 177.995,201.882 177.500 C 201.787 177.005,201.709 177.410,201.709 178.400 M322.456 177.200 C 322.456 177.530,322.611 178.160,322.800 178.600 C 323.017 179.104,323.144 179.178,323.144 178.800 C 323.144 178.470,322.989 177.840,322.800 177.400 C 322.583 176.896,322.456 176.822,322.456 177.200 M172.610 178.780 C 172.275 179.429,172.015 180.284,172.034 180.680 C 172.057 181.159,172.173 181.057,172.379 180.377 C 172.550 179.814,172.901 178.959,173.159 178.477 C 173.417 177.994,173.536 177.600,173.424 177.600 C 173.312 177.600,172.946 178.131,172.610 178.780 M238.849 178.200 C 238.816 178.640,238.696 179.450,238.583 180.000 L 238.377 181.000 238.806 180.019 C 239.042 179.479,239.161 178.669,239.072 178.219 C 238.913 177.421,238.907 177.421,238.849 178.200 M46.019 179.919 C 43.768 182.170,44.404 183.923,49.142 188.525 C 52.908 192.183,52.446 192.231,56.879 187.728 C 60.705 183.841,61.125 182.888,59.941 180.780 C 58.532 178.274,56.072 178.181,53.859 180.550 L 52.703 181.789 51.595 180.462 C 49.944 178.484,47.675 178.263,46.019 179.919 M204.800 179.108 C 204.800 179.968,215.223 180.531,215.739 179.700 C 215.842 179.535,213.678 179.455,210.932 179.523 C 207.515 179.608,205.758 179.497,205.369 179.174 C 205.027 178.891,204.800 178.864,204.800 179.108 M223.600 181.502 C 221.290 183.844,221.214 183.967,222.917 182.607 C 224.448 181.384,226.886 178.686,226.327 178.834 C 226.257 178.852,225.030 180.053,223.600 181.502 M51.154 180.606 L 52.710 182.012 54.393 180.606 C 57.822 177.741,61.442 180.451,59.417 184.366 C 58.750 185.658,53.335 190.800,52.642 190.800 C 51.972 190.800,45.726 184.351,45.431 183.353 C 44.396 179.861,48.271 178.001,51.154 180.606 M132.229 180.229 C 132.081 180.815,132.038 181.372,132.132 181.466 C 132.227 181.560,132.424 181.158,132.571 180.571 C 132.719 179.985,132.762 179.428,132.668 179.334 C 132.573 179.240,132.376 179.642,132.229 180.229 M157.854 181.056 C 157.528 183.439,157.566 188.949,157.923 190.958 C 158.077 191.824,158.200 189.559,158.200 185.858 C 158.200 178.412,158.206 178.492,157.854 181.056 M309.058 180.400 C 309.375 182.125,309.602 182.451,309.594 181.167 C 309.591 180.635,309.411 179.930,309.194 179.600 C 308.918 179.178,308.877 179.415,309.058 180.400 M128.056 180.400 C 128.056 180.730,128.211 181.360,128.400 181.800 C 128.617 182.304,128.744 182.378,128.744 182.000 C 128.744 181.670,128.589 181.040,128.400 180.600 C 128.183 180.096,128.056 180.022,128.056 180.400 M323.400 185.600 C 323.400 190.891,323.431 191.145,323.755 188.500 C 323.963 186.809,323.963 184.391,323.755 182.700 C 323.431 180.055,323.400 180.309,323.400 185.600 M141.483 181.500 C 141.368 182.105,141.152 183.050,141.003 183.600 C 140.809 184.313,140.844 184.440,141.125 184.042 C 141.447 183.586,141.554 183.623,141.713 184.242 C 141.824 184.676,141.929 184.401,141.959 183.600 C 141.988 182.830,142.119 181.795,142.252 181.300 C 142.385 180.805,142.313 180.400,142.092 180.400 C 141.871 180.400,141.597 180.895,141.483 181.500 M117.013 185.654 C 117.349 190.986,117.589 191.731,117.628 187.567 C 117.649 185.393,117.757 184.814,118.034 185.400 C 118.419 186.218,118.397 186.018,117.730 182.695 C 117.140 179.760,116.745 181.394,117.013 185.654 M357.500 181.865 C 358.320 182.196,358.196 191.039,357.367 191.357 C 357.019 191.491,353.149 191.600,348.767 191.600 L 340.800 191.600 340.890 198.900 L 340.980 206.200 341.099 199.100 L 341.218 192.000 349.177 192.000 C 353.553 192.000,357.419 191.891,357.767 191.757 C 358.774 191.371,358.709 181.586,357.700 181.632 C 357.282 181.650,357.201 181.744,357.500 181.865 M131.450 183.250 C 131.117 184.917,131.440 185.240,131.800 183.600 C 131.952 182.909,131.993 182.259,131.891 182.158 C 131.789 182.056,131.591 182.547,131.450 183.250 M171.740 185.600 C 171.740 187.470,171.809 188.235,171.893 187.300 C 171.977 186.365,171.977 184.835,171.893 183.900 C 171.809 182.965,171.740 183.730,171.740 185.600 M128.806 183.433 C 128.809 183.855,128.995 184.470,129.218 184.800 C 129.515 185.238,129.552 185.076,129.356 184.200 C 129.027 182.729,128.798 182.410,128.806 183.433 M190.794 183.097 L 201.588 183.213 201.703 194.706 L 201.818 206.200 201.809 194.600 L 201.800 183.000 190.900 182.990 L 180.000 182.980 190.794 183.097 M179.371 187.400 L 179.400 191.800 183.900 191.913 C 189.078 192.043,189.566 192.493,186.986 194.759 C 186.208 195.441,185.723 196.000,185.908 196.000 C 186.628 196.000,188.870 193.257,188.733 192.542 C 188.608 191.888,188.071 191.776,184.196 191.600 L 179.800 191.400 179.571 187.200 L 179.342 183.000 179.371 187.400 M217.000 187.064 C 211.838 191.320,211.452 191.916,216.400 187.991 C 218.710 186.159,220.675 184.601,220.767 184.530 C 220.858 184.458,220.858 184.331,220.767 184.248 C 220.675 184.164,218.980 185.431,217.000 187.064 M130.651 186.084 C 130.440 186.855,130.333 186.905,129.979 186.400 C 129.626 185.898,129.577 185.926,129.678 186.567 C 129.866 187.751,130.740 187.779,131.033 186.610 C 131.358 185.314,130.997 184.818,130.651 186.084 M140.249 185.815 C 140.112 186.173,140.015 186.766,140.034 187.133 C 140.053 187.500,140.227 187.269,140.421 186.620 C 140.798 185.358,140.665 184.733,140.249 185.815 M233.400 187.477 C 231.968 188.814,231.645 189.225,232.600 188.498 C 234.109 187.349,236.339 185.178,235.970 185.218 C 235.876 185.228,234.720 186.245,233.400 187.477 M278.209 186.636 C 277.476 187.997,275.646 189.851,273.596 191.309 L 272.600 192.018 273.821 191.440 C 275.651 190.573,279.687 185.954,279.115 185.382 C 279.032 185.299,278.625 185.864,278.209 186.636 M118.456 186.800 C 118.456 187.130,118.611 187.760,118.800 188.200 C 119.017 188.704,119.144 188.778,119.144 188.400 C 119.144 188.070,118.989 187.440,118.800 187.000 C 118.583 186.496,118.456 186.422,118.456 186.800 M139.473 188.553 C 139.323 188.945,139.211 189.566,139.225 189.933 C 139.242 190.375,139.381 190.274,139.637 189.634 C 139.849 189.103,139.961 188.482,139.885 188.254 C 139.809 188.027,139.624 188.161,139.473 188.553 M141.371 197.200 C 141.371 202.150,141.428 204.175,141.499 201.700 C 141.569 199.225,141.569 195.175,141.499 192.700 C 141.428 190.225,141.371 192.250,141.371 197.200 M119.256 189.600 C 119.256 189.930,119.411 190.560,119.600 191.000 C 119.817 191.504,119.944 191.578,119.944 191.200 C 119.944 190.870,119.789 190.240,119.600 189.800 C 119.383 189.296,119.256 189.222,119.256 189.600 M309.254 189.867 C 309.225 190.344,309.096 191.064,308.970 191.467 C 308.752 192.161,308.764 192.162,309.196 191.488 C 309.447 191.097,309.575 190.377,309.481 189.888 C 309.309 189.001,309.309 189.001,309.254 189.867 M228.457 191.176 C 225.357 193.419,224.950 194.036,227.922 191.990 C 230.080 190.504,231.187 189.565,230.724 189.613 C 230.656 189.620,229.636 190.323,228.457 191.176 M172.018 190.565 C 171.979 192.230,174.948 196.009,176.286 195.997 C 176.459 195.996,176.095 195.662,175.478 195.255 C 174.118 194.358,173.228 193.137,172.547 191.231 C 172.256 190.419,172.028 190.131,172.018 190.565 M138.629 191.829 C 138.481 192.415,138.438 192.972,138.532 193.066 C 138.627 193.160,138.824 192.758,138.971 192.171 C 139.119 191.585,139.162 191.028,139.068 190.934 C 138.973 190.840,138.776 191.242,138.629 191.829 M209.390 193.610 C 208.089 194.925,207.127 196.000,207.252 196.000 C 207.564 196.000,212.036 191.503,211.880 191.347 C 211.811 191.278,210.690 192.296,209.390 193.610 M322.629 193.029 C 322.481 193.615,322.438 194.172,322.532 194.266 C 322.627 194.360,322.824 193.958,322.971 193.371 C 323.119 192.785,323.162 192.228,323.068 192.134 C 322.973 192.040,322.776 192.442,322.629 193.029 M120.244 193.400 C 120.573 194.871,120.802 195.190,120.794 194.167 C 120.791 193.745,120.605 193.130,120.382 192.800 C 120.085 192.362,120.048 192.524,120.244 193.400 M307.815 193.434 C 307.442 194.002,306.387 194.808,305.469 195.225 C 304.551 195.641,304.088 195.986,304.441 195.991 C 305.299 196.003,307.575 194.419,308.308 193.300 C 308.632 192.805,308.806 192.400,308.695 192.400 C 308.583 192.400,308.187 192.865,307.815 193.434 M257.067 193.067 C 256.920 193.213,256.838 196.318,256.885 199.967 L 256.970 206.600 257.185 200.000 L 257.400 193.400 263.800 193.185 L 270.200 192.969 263.767 192.885 C 260.228 192.838,257.213 192.920,257.067 193.067 M137.849 194.615 C 137.712 194.973,137.615 195.566,137.634 195.933 C 137.653 196.300,137.827 196.069,138.021 195.420 C 138.398 194.158,138.265 193.533,137.849 194.615 M121.044 196.200 C 121.373 197.671,121.602 197.990,121.594 196.967 C 121.591 196.545,121.405 195.930,121.182 195.600 C 120.885 195.162,120.848 195.324,121.044 196.200 M239.400 201.136 L 239.400 206.200 222.138 206.200 C 212.644 206.200,204.960 206.335,205.062 206.500 C 205.395 207.039,238.977 206.863,239.520 206.320 C 240.052 205.788,240.202 197.338,239.694 196.536 C 239.532 196.281,239.400 198.351,239.400 201.136 M40.500 196.812 C 39.495 197.217,39.243 199.083,40.080 199.920 C 40.976 200.816,64.511 200.582,65.338 199.669 C 66.203 198.712,66.173 198.173,65.200 197.200 C 64.325 196.325,42.562 195.984,40.500 196.812 M137.073 197.353 C 136.923 197.745,136.811 198.366,136.825 198.733 C 136.842 199.175,136.981 199.074,137.237 198.434 C 137.449 197.903,137.561 197.282,137.485 197.054 C 137.409 196.827,137.224 196.961,137.073 197.353 M65.200 197.800 C 66.561 199.440,65.432 199.600,52.538 199.600 C 39.694 199.600,39.467 199.567,40.145 197.800 C 40.342 197.285,42.095 197.200,52.538 197.200 C 62.863 197.200,64.777 197.291,65.200 197.800 M121.656 198.400 C 121.656 198.730,121.811 199.360,122.000 199.800 C 122.217 200.304,122.344 200.378,122.344 200.000 C 122.344 199.670,122.189 199.040,122.000 198.600 C 121.783 198.096,121.656 198.022,121.656 198.400 M318.230 200.897 C 316.926 202.249,316.386 202.977,317.030 202.516 C 318.147 201.716,319.214 200.624,320.368 199.100 C 321.344 197.811,320.619 198.420,318.230 200.897 M205.029 200.229 C 204.881 200.815,204.838 201.372,204.932 201.466 C 205.027 201.560,205.224 201.158,205.371 200.571 C 205.519 199.985,205.562 199.428,205.468 199.334 C 205.373 199.240,205.176 199.642,205.029 200.229 M136.229 200.629 C 136.081 201.215,136.038 201.772,136.132 201.866 C 136.227 201.960,136.424 201.558,136.571 200.971 C 136.719 200.385,136.762 199.828,136.668 199.734 C 136.573 199.640,136.376 200.042,136.229 200.629 M162.800 201.744 C 164.327 203.381,167.899 205.834,168.248 205.486 C 168.367 205.366,167.813 204.959,167.017 204.581 C 166.220 204.203,164.631 203.073,163.484 202.069 C 161.685 200.493,161.591 200.449,162.800 201.744 M122.456 201.200 C 122.456 201.530,122.611 202.160,122.800 202.600 C 123.017 203.104,123.144 203.178,123.144 202.800 C 123.144 202.470,122.989 201.840,122.800 201.400 C 122.583 200.896,122.456 200.822,122.456 201.200 M39.872 202.261 C 39.722 202.411,39.600 203.048,39.600 203.677 C 39.600 205.518,40.560 205.645,53.451 205.517 C 66.187 205.390,66.484 205.336,65.768 203.302 L 65.381 202.200 52.763 202.094 C 45.823 202.036,40.022 202.111,39.872 202.261 M65.158 202.949 C 66.600 204.687,65.829 204.800,52.557 204.800 L 40.000 204.800 40.000 203.867 C 40.000 203.353,40.120 202.813,40.267 202.667 C 40.839 202.095,64.673 202.365,65.158 202.949 M135.449 203.415 C 135.312 203.773,135.215 204.366,135.234 204.733 C 135.253 205.100,135.427 204.869,135.621 204.220 C 135.998 202.958,135.865 202.333,135.449 203.415 M191.700 203.646 C 189.895 204.802,190.063 205.068,191.900 203.963 C 193.760 202.845,193.818 202.798,193.367 202.807 C 193.165 202.810,192.415 203.188,191.700 203.646 M314.000 204.000 C 313.230 204.422,312.744 204.774,312.920 204.783 C 313.344 204.805,315.600 203.632,315.600 203.390 C 315.600 203.128,315.577 203.137,314.000 204.000 M134.566 205.994 C 134.357 206.203,131.939 206.431,129.193 206.500 L 124.200 206.627 129.200 206.707 C 133.655 206.779,135.797 206.463,135.162 205.828 C 135.043 205.710,134.776 205.784,134.566 205.994 M307.600 206.000 C 306.808 206.254,306.767 206.320,307.400 206.320 C 307.840 206.320,308.650 206.176,309.200 206.000 C 309.992 205.746,310.033 205.680,309.400 205.680 C 308.960 205.680,308.150 205.824,307.600 206.000 M89.900 206.698 C 91.715 206.772,94.685 206.772,96.500 206.698 C 98.315 206.623,96.830 206.563,93.200 206.563 C 89.570 206.563,88.085 206.623,89.900 206.698 M108.300 206.697 C 109.895 206.773,112.505 206.773,114.100 206.697 C 115.695 206.621,114.390 206.559,111.200 206.559 C 108.010 206.559,106.705 206.621,108.300 206.697 M145.119 206.698 C 146.944 206.772,149.824 206.772,151.519 206.697 C 153.214 206.622,151.720 206.561,148.200 206.562 C 144.680 206.562,143.294 206.624,145.119 206.698 M172.000 206.800 C 172.550 206.976,173.450 207.117,174.000 207.113 C 174.898 207.106,174.878 207.074,173.800 206.800 C 172.108 206.369,170.656 206.369,172.000 206.800 M183.200 206.800 L 182.200 207.120 183.200 207.120 C 183.750 207.120,184.650 206.976,185.200 206.800 L 186.200 206.480 185.200 206.480 C 184.650 206.480,183.750 206.624,183.200 206.800 M196.711 206.693 C 197.651 206.778,199.091 206.777,199.911 206.691 C 200.730 206.605,199.960 206.536,198.200 206.537 C 196.440 206.539,195.770 206.609,196.711 206.693 M247.119 206.698 C 248.944 206.772,251.824 206.772,253.519 206.697 C 255.214 206.622,253.720 206.561,250.200 206.562 C 246.680 206.562,245.294 206.624,247.119 206.698 M330.700 206.698 C 332.515 206.772,335.485 206.772,337.300 206.698 C 339.115 206.623,337.630 206.563,334.000 206.563 C 330.370 206.563,328.885 206.623,330.700 206.698 M177.507 207.490 C 178.226 207.579,179.306 207.577,179.907 207.486 C 180.508 207.395,179.920 207.322,178.600 207.324 C 177.280 207.326,176.788 207.401,177.507 207.490 " stroke="none" fill="#efafaf" fill-rule="evenodd"></path><path id="path4" d="M175.423 164.347 C 174.775 164.486,177.105 164.600,180.600 164.600 C 184.095 164.600,186.425 164.486,185.777 164.347 C 185.130 164.208,182.800 164.095,180.600 164.095 C 178.400 164.095,176.070 164.208,175.423 164.347 M218.076 164.340 C 217.568 164.483,219.604 164.600,222.600 164.600 C 225.596 164.600,227.632 164.483,227.124 164.340 C 226.616 164.197,224.580 164.080,222.600 164.080 C 220.620 164.080,218.584 164.197,218.076 164.340 M86.400 185.600 L 86.400 206.400 93.200 206.400 L 100.000 206.400 100.000 185.600 L 100.000 164.800 93.200 164.800 L 86.400 164.800 86.400 185.600 M104.983 165.300 C 104.878 165.575,104.839 174.890,104.896 186.000 L 105.000 206.200 111.200 206.200 L 117.400 206.200 117.501 199.400 C 117.556 195.660,117.446 190.890,117.256 188.800 C 116.965 185.609,116.901 186.682,116.855 195.500 L 116.800 206.000 111.000 206.000 L 105.200 206.000 105.200 185.586 L 105.200 165.172 114.600 165.286 C 119.771 165.349,124.001 165.265,124.000 165.100 C 124.000 164.543,105.198 164.741,104.983 165.300 M136.418 165.566 C 136.188 165.996,136.018 166.674,136.041 167.074 C 136.064 167.481,136.265 167.229,136.499 166.500 L 136.916 165.200 145.658 165.200 L 154.400 165.200 154.400 185.600 L 154.400 206.000 148.151 206.000 L 141.901 206.000 142.056 193.700 C 142.142 186.935,142.090 182.300,141.941 183.400 C 141.792 184.500,141.654 190.129,141.635 195.910 L 141.600 206.419 148.300 206.310 L 155.000 206.200 155.000 185.600 L 155.000 165.000 145.918 164.893 C 137.260 164.790,136.817 164.822,136.418 165.566 M171.600 165.200 C 170.805 165.714,171.804 165.714,173.000 165.200 L 173.800 164.856 173.000 164.834 C 172.560 164.822,171.930 164.987,171.600 165.200 M188.000 165.200 C 189.368 165.638,190.419 165.638,189.400 165.200 C 188.960 165.011,188.240 164.862,187.800 164.868 C 187.157 164.877,187.196 164.943,188.000 165.200 M213.700 165.434 C 212.985 165.746,212.400 166.081,212.400 166.177 C 212.400 166.350,216.047 165.215,216.367 164.942 C 216.803 164.570,214.852 164.930,213.700 165.434 M243.383 165.300 C 243.278 165.575,243.239 174.890,243.296 186.000 L 243.400 206.200 250.100 206.310 L 256.800 206.419 256.711 200.110 L 256.622 193.800 256.501 199.900 L 256.379 206.000 250.190 206.000 L 244.000 206.000 244.000 185.580 L 244.000 165.160 257.363 165.280 C 264.712 165.346,270.517 165.268,270.263 165.106 C 269.395 164.555,243.597 164.741,243.383 165.300 M283.783 165.300 C 283.678 165.575,283.639 174.890,283.696 186.000 L 283.800 206.200 294.920 206.306 C 301.035 206.365,306.573 206.275,307.225 206.106 C 307.877 205.938,302.918 205.861,296.205 205.935 L 284.000 206.070 284.000 185.604 L 284.000 165.138 296.229 165.269 C 302.954 165.341,308.039 165.283,307.529 165.140 C 305.657 164.616,283.990 164.762,283.783 165.300 M327.200 185.600 L 327.200 206.400 334.000 206.400 L 340.800 206.400 340.800 199.000 L 340.800 191.600 348.767 191.600 C 358.900 191.600,358.000 192.087,358.000 186.600 C 358.000 181.112,358.902 181.600,348.751 181.600 L 340.768 181.600 340.884 178.300 L 341.000 175.000 350.900 174.893 C 356.345 174.834,360.800 174.654,360.800 174.493 C 360.801 174.332,356.256 174.290,350.700 174.400 L 340.600 174.600 340.483 177.939 C 340.318 182.651,339.814 182.400,349.463 182.400 L 357.627 182.400 357.514 186.700 L 357.400 191.000 349.000 191.200 L 340.600 191.400 340.491 198.700 L 340.382 206.000 333.991 206.000 L 327.600 206.000 327.600 185.604 L 327.600 165.209 344.300 165.100 L 361.000 164.991 344.100 164.895 L 327.200 164.800 327.200 185.600 M99.600 185.600 L 99.600 206.000 93.200 206.000 L 86.800 206.000 86.800 185.600 L 86.800 165.200 93.200 165.200 L 99.600 165.200 99.600 185.600 M167.600 166.825 C 163.869 168.877,159.199 174.454,159.200 176.856 C 159.200 177.155,159.737 176.267,160.391 174.883 C 161.930 171.631,165.068 168.496,168.406 166.878 C 169.833 166.186,170.730 165.619,170.400 165.617 C 170.070 165.616,168.810 166.159,167.600 166.825 M232.837 166.737 C 233.824 167.363,235.299 168.656,236.115 169.609 C 237.843 171.628,238.109 171.415,236.500 169.302 C 235.446 167.918,232.280 165.600,231.443 165.600 C 231.223 165.600,231.851 166.112,232.837 166.737 M309.800 166.000 C 310.996 166.514,311.995 166.514,311.200 166.000 C 310.870 165.787,310.240 165.622,309.800 165.634 L 309.000 165.656 309.800 166.000 M124.056 166.400 C 124.056 166.730,124.211 167.360,124.400 167.800 C 124.617 168.304,124.744 168.378,124.744 168.000 C 124.744 167.670,124.589 167.040,124.400 166.600 C 124.183 166.096,124.056 166.022,124.056 166.400 M209.289 168.196 C 208.191 169.183,206.911 170.801,206.446 171.791 C 205.121 174.609,205.455 174.817,206.844 172.038 C 207.695 170.335,208.716 169.052,210.080 167.975 C 211.175 167.109,211.895 166.400,211.679 166.400 C 211.463 166.400,210.388 167.208,209.289 168.196 M274.000 167.117 C 275.278 167.979,276.821 169.522,277.683 170.800 C 278.054 171.350,278.367 171.563,278.379 171.274 C 278.406 170.589,274.211 166.394,273.526 166.421 C 273.237 166.433,273.450 166.746,274.000 167.117 M314.000 167.589 C 316.362 168.824,317.958 170.172,319.698 172.400 C 320.299 173.170,320.793 173.595,320.796 173.346 C 320.804 172.470,316.181 168.149,314.304 167.279 C 311.597 166.024,311.397 166.228,314.000 167.589 M194.800 167.921 C 195.350 168.294,196.610 169.298,197.600 170.151 C 198.716 171.113,198.519 170.847,197.081 169.451 C 195.806 168.213,194.546 167.209,194.281 167.221 C 194.017 167.233,194.250 167.548,194.800 167.921 M135.473 168.953 C 135.323 169.345,135.211 169.966,135.225 170.333 C 135.242 170.775,135.381 170.674,135.637 170.034 C 135.849 169.503,135.961 168.882,135.885 168.654 C 135.809 168.427,135.624 168.561,135.473 168.953 M124.834 169.600 C 124.846 169.930,125.011 170.560,125.200 171.000 L 125.544 171.800 125.566 171.000 C 125.578 170.560,125.413 169.930,125.200 169.600 C 124.855 169.067,124.815 169.067,124.834 169.600 M134.600 172.400 C 134.448 173.091,134.407 173.741,134.509 173.842 C 134.611 173.944,134.809 173.453,134.950 172.750 C 135.283 171.083,134.960 170.760,134.600 172.400 M125.668 172.400 C 125.688 173.439,126.318 175.146,126.332 174.200 C 126.338 173.760,126.189 173.040,126.000 172.600 C 125.789 172.110,125.661 172.032,125.668 172.400 M199.827 173.200 C 200.652 174.912,200.803 175.094,200.791 174.367 C 200.786 174.055,200.415 173.350,199.967 172.800 L 199.152 171.800 199.827 173.200 M220.707 172.690 C 221.426 172.779,222.506 172.777,223.107 172.686 C 223.708 172.595,223.120 172.522,221.800 172.524 C 220.480 172.526,219.988 172.601,220.707 172.690 M33.365 179.800 C 33.366 183.760,33.426 185.326,33.498 183.280 C 33.571 181.234,33.571 177.994,33.498 176.080 C 33.424 174.166,33.365 175.840,33.365 179.800 M217.241 174.214 C 216.559 174.992,216.005 175.847,216.012 176.114 C 216.019 176.381,216.216 176.240,216.450 175.800 C 216.684 175.360,217.437 174.505,218.123 173.900 C 218.809 173.295,219.170 172.800,218.926 172.800 C 218.682 172.800,217.924 173.436,217.241 174.214 M178.800 173.973 C 178.190 174.152,179.127 174.263,181.200 174.259 C 183.376 174.255,184.168 174.152,183.400 173.973 C 181.829 173.609,180.043 173.608,178.800 173.973 M238.483 176.600 C 238.485 179.457,238.525 179.626,238.852 178.173 C 239.074 177.186,239.073 175.929,238.849 174.973 C 238.524 173.586,238.481 173.779,238.483 176.600 M279.468 175.400 C 279.771 177.377,280.002 177.714,279.994 176.167 C 279.991 175.525,279.816 174.730,279.605 174.400 C 279.345 173.991,279.301 174.310,279.468 175.400 M133.873 174.953 C 133.723 175.345,133.611 175.966,133.625 176.333 C 133.642 176.775,133.781 176.674,134.037 176.034 C 134.249 175.503,134.361 174.882,134.285 174.654 C 134.209 174.427,134.024 174.561,133.873 174.953 M175.169 175.310 C 173.808 176.227,171.997 178.544,172.004 179.359 C 172.006 179.602,172.462 179.041,173.018 178.114 C 173.574 177.187,174.787 175.974,175.714 175.418 C 176.641 174.862,177.202 174.406,176.959 174.404 C 176.717 174.402,175.911 174.809,175.169 175.310 M260.723 174.767 C 264.513 174.981,264.908 175.081,265.614 176.000 C 266.037 176.550,266.386 176.788,266.391 176.529 C 266.418 175.110,264.368 174.399,260.446 174.467 L 256.600 174.534 260.723 174.767 M296.981 174.906 C 296.874 175.185,296.834 180.180,296.893 186.006 L 297.000 196.600 299.676 196.718 C 301.147 196.782,302.947 196.673,303.676 196.475 C 304.691 196.198,304.113 196.124,301.200 196.157 L 297.400 196.200 297.400 185.600 L 297.400 175.000 301.184 175.035 C 303.316 175.054,304.626 174.936,304.184 174.763 C 302.817 174.228,297.198 174.340,296.981 174.906 M226.687 176.373 C 226.957 178.383,225.924 180.129,223.080 182.474 C 221.936 183.417,220.910 184.290,220.800 184.413 C 220.690 184.537,218.710 186.140,216.400 187.976 C 211.941 191.520,206.400 196.902,206.400 197.688 C 206.400 198.212,206.381 198.232,208.505 195.550 C 209.311 194.533,212.812 191.383,216.285 188.551 C 224.134 182.149,225.910 180.534,226.631 179.141 C 227.267 177.910,227.395 175.368,226.838 175.024 C 226.633 174.897,226.567 175.481,226.687 176.373 M126.434 175.600 C 126.446 175.930,126.611 176.560,126.800 177.000 L 127.144 177.800 127.166 177.000 C 127.178 176.560,127.013 175.930,126.800 175.600 C 126.455 175.067,126.415 175.067,126.434 175.600 M187.319 176.292 C 187.934 176.947,188.577 178.005,188.747 178.642 L 189.057 179.800 195.328 179.910 C 201.120 180.012,201.598 179.966,201.568 179.310 C 201.550 178.891,201.454 178.805,201.335 179.100 C 201.187 179.467,199.613 179.600,195.402 179.600 L 189.671 179.600 188.847 177.900 C 188.393 176.965,187.612 175.952,187.111 175.650 C 186.335 175.182,186.366 175.277,187.319 176.292 M200.846 175.600 C 200.865 175.930,201.024 176.650,201.200 177.200 L 201.520 178.200 201.554 177.200 C 201.573 176.650,201.413 175.930,201.200 175.600 C 200.855 175.067,200.816 175.067,200.846 175.600 M205.122 176.790 C 204.709 179.529,204.940 179.640,210.759 179.512 L 215.800 179.400 215.852 178.000 L 215.904 176.600 215.726 177.912 L 215.548 179.224 210.674 179.112 L 205.800 179.000 205.596 177.000 L 205.392 175.000 205.122 176.790 M306.435 176.112 C 307.179 176.613,308.193 177.738,308.687 178.612 C 309.682 180.368,309.942 180.221,309.014 178.428 C 308.382 177.204,306.206 175.200,305.510 175.200 C 305.275 175.200,305.691 175.610,306.435 176.112 M256.477 179.020 C 256.382 183.514,256.475 183.622,260.380 183.527 L 263.400 183.453 260.200 183.227 L 257.000 183.000 256.777 179.200 L 256.553 175.400 256.477 179.020 M266.514 179.000 C 266.517 180.100,266.595 180.503,266.687 179.895 C 266.779 179.286,266.777 178.386,266.682 177.895 C 266.587 177.403,266.511 177.900,266.514 179.000 M133.073 178.153 C 132.923 178.545,132.811 179.166,132.825 179.533 C 132.842 179.975,132.981 179.874,133.237 179.234 C 133.449 178.703,133.561 178.082,133.485 177.854 C 133.409 177.627,133.224 177.761,133.073 178.153 M158.649 178.215 C 158.512 178.573,158.416 179.256,158.436 179.733 C 158.462 180.347,158.585 180.208,158.859 179.256 C 159.257 177.872,159.094 177.058,158.649 178.215 M322.662 179.400 C 322.796 180.280,322.972 181.075,323.053 181.167 C 323.356 181.510,323.129 179.368,322.781 178.600 C 322.529 178.042,322.493 178.285,322.662 179.400 M127.234 178.800 C 127.246 179.130,127.411 179.760,127.600 180.200 L 127.944 181.000 127.966 180.200 C 127.978 179.760,127.813 179.130,127.600 178.800 C 127.255 178.267,127.215 178.267,127.234 178.800 M116.221 181.100 C 116.540 183.730,116.800 184.333,116.800 182.443 C 116.800 181.685,116.965 181.255,117.200 181.400 C 117.740 181.734,117.703 181.182,117.100 179.883 C 116.288 178.133,115.923 178.638,116.221 181.100 M141.812 179.317 C 141.641 179.712,141.613 180.147,141.751 180.284 C 142.157 180.690,142.484 180.120,142.297 179.331 C 142.132 178.633,142.110 178.632,141.812 179.317 M171.450 181.250 C 171.133 182.833,171.195 189.101,171.540 190.324 C 171.683 190.832,171.800 188.717,171.800 185.624 C 171.800 179.422,171.804 179.478,171.450 181.250 M132.200 181.600 C 132.048 182.291,132.007 182.941,132.109 183.042 C 132.211 183.144,132.409 182.653,132.550 181.950 C 132.883 180.283,132.560 179.960,132.200 181.600 M279.654 181.200 C 279.619 181.750,279.496 182.650,279.383 183.200 L 279.177 184.200 279.607 183.215 C 279.843 182.674,279.965 181.774,279.878 181.215 L 279.720 180.200 279.654 181.200 M141.029 181.829 C 140.881 182.415,140.851 182.984,140.961 183.094 C 141.071 183.204,141.281 182.815,141.429 182.229 C 141.576 181.642,141.606 181.073,141.496 180.963 C 141.386 180.853,141.176 181.242,141.029 181.829 M309.702 185.600 C 309.702 190.264,309.728 190.432,310.086 188.100 C 310.331 186.503,310.331 184.697,310.086 183.100 C 309.728 180.768,309.702 180.936,309.702 185.600 M128.056 181.600 C 128.056 181.930,128.211 182.560,128.400 183.000 C 128.617 183.504,128.744 183.578,128.744 183.200 C 128.744 182.870,128.589 182.240,128.400 181.800 C 128.183 181.296,128.056 181.222,128.056 181.600 M158.150 185.800 C 158.151 188.220,158.216 189.158,158.296 187.885 C 158.376 186.612,158.375 184.632,158.294 183.485 C 158.214 182.338,158.149 183.380,158.150 185.800 M117.634 182.600 C 117.622 183.040,117.787 183.670,118.000 184.000 C 118.514 184.795,118.514 183.796,118.000 182.600 L 117.656 181.800 117.634 182.600 M237.200 182.236 C 237.200 182.991,233.715 186.819,231.397 188.610 C 228.531 190.825,227.660 191.690,229.600 190.395 C 233.457 187.820,238.170 182.836,237.439 182.105 C 237.307 181.974,237.200 182.033,237.200 182.236 M323.334 185.600 C 323.334 187.250,323.405 187.925,323.491 187.100 C 323.578 186.275,323.578 184.925,323.491 184.100 C 323.405 183.275,323.334 183.950,323.334 185.600 M179.686 187.300 L 179.800 191.400 184.161 191.600 C 188.041 191.778,188.559 191.888,188.854 192.600 C 189.146 193.303,189.175 193.279,189.093 192.400 C 189.001 191.406,188.975 191.399,184.500 191.287 L 180.000 191.174 180.000 187.393 L 180.000 183.613 190.900 183.500 L 201.800 183.387 190.686 183.293 L 179.572 183.200 179.686 187.300 M131.429 184.629 C 131.281 185.215,131.238 185.772,131.332 185.866 C 131.427 185.960,131.624 185.558,131.771 184.971 C 131.919 184.385,131.962 183.828,131.868 183.734 C 131.773 183.640,131.576 184.042,131.429 184.629 M140.229 184.629 C 140.081 185.215,140.051 185.784,140.161 185.894 C 140.271 186.004,140.481 185.615,140.629 185.029 C 140.776 184.442,140.806 183.873,140.696 183.763 C 140.586 183.653,140.376 184.042,140.229 184.629 M128.834 184.800 C 128.846 185.130,129.011 185.760,129.200 186.200 L 129.544 187.000 129.566 186.200 C 129.578 185.760,129.413 185.130,129.200 184.800 C 128.855 184.267,128.815 184.267,128.834 184.800 M278.287 185.787 C 277.925 186.545,276.955 187.938,276.129 188.882 C 274.724 190.492,274.712 190.524,275.950 189.400 C 277.289 188.184,279.445 184.911,279.120 184.587 C 279.023 184.490,278.648 185.030,278.287 185.787 M118.456 185.600 C 118.456 185.930,118.611 186.560,118.800 187.000 C 119.017 187.504,119.144 187.578,119.144 187.200 C 119.144 186.870,118.989 186.240,118.800 185.800 C 118.583 185.296,118.456 185.222,118.456 185.600 M139.646 186.867 C 139.621 187.234,139.496 187.864,139.370 188.267 C 139.152 188.962,139.163 188.963,139.597 188.287 C 139.848 187.896,139.973 187.266,139.873 186.887 C 139.711 186.268,139.688 186.266,139.646 186.867 M130.832 187.143 C 130.813 187.456,130.546 187.588,130.200 187.455 C 129.556 187.208,129.340 188.192,129.955 188.572 C 130.449 188.878,131.320 187.738,131.069 187.113 C 130.909 186.714,130.856 186.721,130.832 187.143 M35.770 196.000 C 35.770 200.730,35.828 202.665,35.898 200.300 C 35.969 197.935,35.969 194.065,35.898 191.700 C 35.828 189.335,35.770 191.270,35.770 196.000 M119.256 188.400 C 119.256 188.730,119.411 189.360,119.600 189.800 C 119.817 190.304,119.944 190.378,119.944 190.000 C 119.944 189.670,119.789 189.040,119.600 188.600 C 119.383 188.096,119.256 188.022,119.256 188.400 M138.629 190.629 C 138.481 191.215,138.438 191.772,138.532 191.866 C 138.627 191.960,138.824 191.558,138.971 190.971 C 139.119 190.385,139.162 189.828,139.068 189.734 C 138.973 189.640,138.776 190.042,138.629 190.629 M322.849 190.600 C 322.816 191.040,322.696 191.850,322.583 192.400 L 322.377 193.400 322.806 192.419 C 323.042 191.879,323.161 191.069,323.072 190.619 C 322.913 189.821,322.907 189.821,322.849 190.600 M273.322 191.000 C 272.851 191.330,271.506 191.858,270.333 192.174 C 269.160 192.489,268.539 192.759,268.954 192.774 C 270.149 192.815,272.558 191.987,273.623 191.169 C 274.786 190.275,274.548 190.141,273.322 191.000 M120.034 191.400 C 120.022 191.840,120.187 192.470,120.400 192.800 C 120.914 193.595,120.914 192.596,120.400 191.400 L 120.056 190.600 120.034 191.400 M158.446 192.000 C 158.427 192.550,158.587 193.270,158.800 193.600 C 159.294 194.364,159.294 193.542,158.800 192.000 L 158.480 191.000 158.446 192.000 M224.710 193.326 C 220.506 196.148,220.546 196.169,230.433 196.400 L 239.000 196.600 239.113 201.300 L 239.225 206.000 222.155 206.000 L 205.084 206.000 205.309 203.100 C 205.469 201.028,205.423 200.481,205.149 201.184 C 204.937 201.724,204.817 203.074,204.882 204.184 L 205.000 206.200 222.200 206.200 L 239.400 206.200 239.517 202.000 C 239.701 195.363,240.628 196.000,230.792 196.000 C 221.747 196.000,221.544 195.949,224.101 194.312 C 225.852 193.190,228.354 191.220,228.000 191.241 C 227.890 191.247,226.409 192.186,224.710 193.326 M308.590 192.711 C 308.156 193.516,307.188 194.586,306.441 195.088 C 305.693 195.589,305.275 196.000,305.510 196.000 C 306.220 196.000,308.387 193.986,309.044 192.715 C 309.939 190.984,309.525 190.980,308.590 192.711 M172.000 191.829 C 172.000 193.177,176.366 197.368,177.054 196.680 C 177.170 196.564,176.596 196.151,175.779 195.763 C 174.883 195.338,173.837 194.340,173.146 193.251 C 172.516 192.257,172.000 191.617,172.000 191.829 M137.829 193.429 C 137.681 194.015,137.651 194.584,137.761 194.694 C 137.871 194.804,138.081 194.415,138.229 193.829 C 138.376 193.242,138.406 192.673,138.296 192.563 C 138.186 192.453,137.976 192.842,137.829 193.429 M120.834 194.200 C 120.822 194.640,120.987 195.270,121.200 195.600 C 121.714 196.395,121.714 195.396,121.200 194.200 L 120.856 193.400 120.834 194.200 M187.570 194.642 C 187.036 195.216,186.170 195.851,185.645 196.054 C 185.119 196.256,184.795 196.528,184.923 196.657 C 185.270 197.004,187.945 195.249,188.419 194.364 C 188.977 193.321,188.721 193.405,187.570 194.642 M137.246 195.667 C 137.221 196.034,137.096 196.664,136.970 197.067 C 136.752 197.762,136.763 197.763,137.197 197.087 C 137.448 196.696,137.573 196.066,137.473 195.687 C 137.311 195.068,137.288 195.066,137.246 195.667 M121.668 197.000 C 121.662 197.440,121.811 198.160,122.000 198.600 C 122.438 199.619,122.438 198.568,122.000 197.200 C 121.743 196.396,121.677 196.357,121.668 197.000 M179.500 197.282 C 180.523 197.502,181.877 197.502,182.900 197.282 C 184.412 196.958,184.223 196.918,181.200 196.918 C 178.177 196.918,177.988 196.958,179.500 197.282 M319.906 198.488 C 318.209 201.057,315.206 203.253,311.509 204.626 C 310.129 205.139,309.270 205.563,309.600 205.570 C 312.481 205.624,321.920 198.987,320.699 197.766 C 320.594 197.661,320.237 197.986,319.906 198.488 M136.229 199.429 C 136.081 200.015,136.038 200.572,136.132 200.666 C 136.227 200.760,136.424 200.358,136.571 199.771 C 136.719 199.185,136.762 198.628,136.668 198.534 C 136.573 198.440,136.376 198.842,136.229 199.429 M160.821 198.628 C 160.791 199.246,163.421 202.222,164.920 203.265 C 165.771 203.857,165.523 203.493,164.178 202.177 C 163.065 201.090,161.860 199.750,161.498 199.200 C 161.137 198.650,160.833 198.393,160.821 198.628 M33.328 202.000 C 33.328 203.430,33.401 204.015,33.489 203.300 C 33.578 202.585,33.578 201.415,33.489 200.700 C 33.401 199.985,33.328 200.570,33.328 202.000 M122.456 200.000 C 122.456 200.330,122.611 200.960,122.800 201.400 C 123.017 201.904,123.144 201.978,123.144 201.600 C 123.144 201.270,122.989 200.640,122.800 200.200 C 122.583 199.696,122.456 199.622,122.456 200.000 M135.429 202.229 C 135.281 202.815,135.251 203.384,135.361 203.494 C 135.471 203.604,135.681 203.215,135.829 202.629 C 135.976 202.042,136.006 201.473,135.896 201.363 C 135.786 201.253,135.576 201.642,135.429 202.229 M123.234 203.000 C 123.222 203.440,123.387 204.070,123.600 204.400 C 124.114 205.195,124.114 204.196,123.600 203.000 L 123.256 202.200 123.234 203.000 M191.284 203.466 C 190.340 204.035,189.648 204.581,189.747 204.680 C 189.846 204.779,190.667 204.370,191.571 203.771 C 193.426 202.544,193.475 202.561,194.199 204.670 L 194.723 206.200 198.262 206.234 L 201.800 206.268 198.432 206.034 C 195.120 205.804,195.057 205.780,194.678 204.600 C 193.887 202.138,193.630 202.052,191.284 203.466 M134.767 204.800 C 134.570 205.979,125.047 206.630,124.338 205.513 C 124.099 205.136,124.011 205.186,124.006 205.700 C 124.001 206.331,124.510 206.400,129.151 206.400 C 134.578 206.400,135.469 206.118,135.100 204.519 C 134.974 203.972,134.895 204.039,134.767 204.800 M168.201 205.201 C 168.419 205.554,171.959 206.575,172.183 206.350 C 172.272 206.262,171.371 205.902,170.183 205.550 C 168.994 205.199,168.102 205.042,168.201 205.201 M185.400 206.000 L 184.600 206.344 185.400 206.366 C 185.840 206.378,186.470 206.213,186.800 206.000 C 187.595 205.486,186.596 205.486,185.400 206.000 M173.822 206.853 C 175.376 207.186,181.949 207.191,183.122 206.860 C 183.629 206.717,181.478 206.600,178.344 206.600 C 175.209 206.600,173.174 206.714,173.822 206.853 " stroke="none" fill="#fc8c8c" fill-rule="evenodd"></path></g></svg>